<?xml version="1.0" standalone="no"?>
<!DOCTYPE svg PUBLIC "-//W3C//DTD SVG 1.1//EN" "http://www.w3.org/Graphics/SVG/1.1/DTD/svg11.dtd" >
<svg xmlns="http://www.w3.org/2000/svg">
<metadata>Generated by IcoMoon</metadata>
<defs>
<font id="Vitruvius-icon-set" horiz-adv-x="1024">
<font-face units-per-em="1024" ascent="960" descent="-64" />
<missing-glyph horiz-adv-x="1024" />
<glyph unicode="&#x20;" horiz-adv-x="512" d="" />
<glyph unicode="&#xe900;" glyph-name="linkedin" d="M782.372 189.458h-113.794v170.109c0 40.564-0.759 92.783-59.185 92.783-59.267 0-68.335-44.196-68.335-89.829v-173.051h-113.794v349.813h109.242v-47.806h1.529c22.275 36.355 63.693 58.069 107.784 56.507 115.335 0 136.6-72.416 136.6-166.624l-0.047-191.902zM298.868 587.099c-36.471-0.006-66.041 28.211-66.048 63.024s29.553 63.041 66.024 63.047c36.471 0.006 66.041-28.211 66.048-63.024 0.003-16.718-6.951-32.753-19.333-44.576s-29.177-18.468-46.691-18.471v0zM355.765 189.458h-113.912v349.824h113.912v-349.824zM839.103 814.043h-654.432c-30.93 0.333-56.294-23.317-56.672-52.841v-627.29c0.365-29.538 25.727-53.212 56.672-52.902h654.432c31.006-0.367 56.468 23.305 56.897 52.902v627.335c-0.442 29.583-25.906 53.231-56.897 52.846v-0.050z" />
<glyph unicode="&#xe901;" glyph-name="pinterest" d="M510.426 832c-211.2 0-382.426-171.226-382.426-382.426 0-162.098 100.721-300.59 242.99-356.302-3.462 30.216-6.295 76.8 1.259 109.849 6.925 29.902 44.695 190.111 44.695 190.111s-11.331 22.977-11.331 56.656c0 53.193 30.846 92.852 69.246 92.852 32.734 0 48.472-24.551 48.472-53.823 0-32.734-20.774-81.836-31.79-127.475-9.128-38.085 19.2-69.246 56.656-69.246 67.987 0 120.236 71.764 120.236 175.003 0 91.593-65.784 155.489-159.895 155.489-108.905 0-172.8-81.521-172.8-165.875 0-32.734 12.59-67.987 28.328-87.187 3.148-3.777 3.462-7.239 2.518-11.016-2.833-11.961-9.443-38.085-10.702-43.436-1.574-6.925-5.666-8.498-12.905-5.036-47.843 22.348-77.744 91.908-77.744 148.249 0 120.551 87.502 231.344 252.748 231.344 132.511 0 235.751-94.426 235.751-220.957 0-131.882-83.095-237.954-198.295-237.954-38.715 0-75.226 20.144-87.502 44.066 0 0-19.2-73.023-23.921-90.964-8.498-33.364-31.79-74.911-47.528-100.407 35.882-11.016 73.652-16.997 113.311-16.997 211.2 0 382.428 171.226 382.428 382.426 0.628 211.83-170.598 383.056-381.798 383.056z" />
<glyph unicode="&#xe902;" glyph-name="facebook" d="M512 832c-212.078 0-384-171.922-384-384 0-191.666 140.423-350.528 324-379.335v268.335h-97.5v111h97.5v84.6c0 96.24 57.328 149.4 145.043 149.4 42.013 0 85.957-7.5 85.957-7.5v-94.5h-48.421c-47.702 0-62.579-29.6-62.579-59.968v-72.032h106.5l-17.025-111h-89.475v-268.335c183.577 28.808 324 187.669 324 379.335 0 212.078-171.923 384-384 384z" />
<glyph unicode="&#xe903;" glyph-name="search" d="M661.007 359.332l195.358-195.358c16.662-16.662 16.662-43.677 0-60.34s-43.677-16.662-60.34 0l-195.358 195.358c-110.194-81.116-266.086-71.816-365.802 27.899-109.972 109.972-109.972 288.271 0 398.243s288.271 109.972 398.243 0c99.715-99.715 109.015-255.608 27.899-365.802v0zM596.905 363.095c89.977 89.977 89.977 235.858 0 325.835s-235.858 89.977-325.835 0c-89.977-89.977-89.977-235.858 0-325.835s235.858-89.977 325.835 0z" />
<glyph unicode="&#xe904;" glyph-name="add-circle" d="M546.501 482.652h211.381v-68.329h-211.381v-211.381h-68.329v211.381h-211.381v68.329h211.381v211.381h68.329v-211.381zM512.336 21.431c-236.29 0-427.862 191.188-427.862 427.056s191.572 427.056 427.862 427.056c236.29 0 427.862-191.188 427.862-427.056s-191.572-427.056-427.862-427.056zM512.336 72.678c208.010 0 376.615 168.267 376.615 375.81s-168.605 375.81-376.615 375.81c-208.010 0-376.615-168.267-376.615-375.81s168.605-375.81 376.615-375.81z" />
<glyph unicode="&#xe905;" glyph-name="sort" d="M479.777 317.663c-4.765 4.915-10.532 7.385-17.277 7.385-6.867 0-12.658-2.495-17.374-7.486l-129.244-133.315v392.863c0 6.957-2.395 12.906-7.16 17.821s-10.532 7.385-17.277 7.385c-6.744 0-12.511-2.47-17.277-7.385s-7.16-10.864-7.16-17.821v-392.863l-129.244 133.315c-4.716 4.991-10.508 7.486-17.374 7.486-6.744 0-12.511-2.47-17.277-7.385s-7.16-10.864-7.16-17.821c0-7.083 2.346-13.057 7.062-17.922l171.055-176.443c4.961-4.865 10.752-7.285 17.374-7.285s12.414 2.42 17.374 7.285l171.055 176.443c4.716 4.991 7.062 10.965 7.062 17.922s-2.395 12.906-7.16 17.821zM920.885 578.337c-4.765-4.915-10.532-7.385-17.277-7.385-6.867 0-12.658 2.495-17.374 7.486l-129.244 133.315v-392.863c0-6.957-2.395-12.906-7.16-17.821s-10.532-7.385-17.277-7.385c-6.744 0-12.511 2.47-17.277 7.385s-7.16 10.864-7.16 17.821v392.863l-129.244-133.315c-4.716-4.991-10.508-7.486-17.374-7.486-6.744 0-12.511 2.47-17.277 7.385s-7.16 10.864-7.16 17.821c0 7.083 2.346 13.057 7.062 17.922l171.055 176.443c4.961 4.865 10.752 7.285 17.374 7.285s12.414-2.42 17.374-7.285l171.055-176.443c4.716-4.991 7.062-10.965 7.062-17.922s-2.395-12.906-7.16-17.821z" />
<glyph unicode="&#xe906;" glyph-name="bell" d="M561.285 832.499c30.49-5.397 60.665-15.511 89.057-31.503 90.178-50.791 144.038-149.121 144.038-302.809 0-125.11 25.2-208.178 66.019-257.88 13.499-16.436 27.64-27.776 41.499-35.048 7.663-4.021 13.032-5.775 15.047-6.134 30.763-5.484 26.755-50.803-4.493-50.803h-803.712c-31.189 0-35.272 45.197-4.587 50.786 2.025 0.369 7.407 2.147 15.083 6.199 13.875 7.325 28.031 18.716 41.541 35.193 40.83 49.796 66.029 132.817 66.029 257.687 0 153.689 53.862 252.018 144.042 302.809 28.975 16.319 59.807 26.518 90.936 31.829 0.043 0.007 0.087 0.015 0.13 0.022-0.004 0.27-0.007 0.541-0.007 0.812 0 27.446 22.249 49.696 49.696 49.696s49.696-22.249 49.696-49.696c0-0.388-0.004-0.775-0.013-1.161zM395.974 756.386c-73.576-41.44-117.968-122.48-117.968-258.198 0-135.965-28.675-230.436-77.636-290.15-2.43-2.964-4.869-5.801-7.31-8.514h634.895c-2.378 2.645-4.754 5.407-7.121 8.29-48.976 59.634-77.653 154.163-77.653 290.375 0 135.718-44.391 216.759-117.965 258.198-29.681 16.718-60.207 25.151-86.951 28.105l-25.584 1.1c-1.343 0.055-1.713 0.067-2.084 0.078-1.762-0.064-2.013-0.075-2.090-0.078l-25.535-1.735c-26.788-2.319-57.316-10.752-86.998-27.47zM587.209 150.731h51.2c0-70.439-57.104-127.543-127.543-127.543s-127.537 57.103-127.537 127.543h51.2c0-42.163 34.177-76.343 76.337-76.343 42.162 0 76.343 34.181 76.343 76.343z" />
<glyph unicode="&#xe907;" glyph-name="check-circle" d="M444.903 394.771l248.754 248.754 60.34-60.34-309.383-309.383-60.34 60.34 0.289 0.289-86.932 86.932 60.34 60.34 86.932-86.932zM512 28.184c-234.699 0-424.96 190.261-424.96 424.96s190.261 424.96 424.96 424.96c234.699 0 424.96-190.261 424.96-424.96s-190.261-424.96-424.96-424.96zM512 79.384c206.422 0 373.76 167.338 373.76 373.76s-167.338 373.76-373.76 373.76c-206.422 0-373.76-167.338-373.76-373.76s167.338-373.76 373.76-373.76z" />
<glyph unicode="&#xe908;" glyph-name="calendar" d="M845.632 617.443v109.043c0 8.295-6.724 15.019-15.019 15.019h-91.872v-77.355h-51.2v77.355h-324.267v-77.355h-51.2v77.355h-116.813c-8.295 0-15.019-6.724-15.019-15.019v-109.043h665.389zM845.632 566.243h-665.389v-485.559c0-8.295 6.724-15.019 15.019-15.019h635.352c8.295 0 15.019 6.724 15.019 15.019v485.559zM738.742 792.705h91.872c36.572 0 66.219-29.647 66.219-66.219v-645.803c0-36.572-29.647-66.219-66.219-66.219h-635.352c-36.572 0-66.219 29.647-66.219 66.219v645.803c0 36.572 29.647 66.219 66.219 66.219h116.813v85.269h51.2v-85.269h324.267v85.269h51.2v-85.269zM311.168 446.87h83.299v-83.299h-83.299v83.299zM471.445 446.87h83.299v-83.299h-83.299v83.299zM625.702 446.87h83.299v-83.299h-83.299v83.299zM311.168 259.137h83.299v-83.299h-83.299v83.299zM471.445 259.137h83.299v-83.299h-83.299v83.299zM625.702 259.137h83.299v-83.299h-83.299v83.299z" />
<glyph unicode="&#xe909;" glyph-name="chat" d="M302.619 241.701c-119.622 0-217.392 97.773-217.392 217.392v168.117c0 119.624 97.768 217.392 217.392 217.392h418.761c119.629 0 217.392-97.766 217.392-217.392v-168.117c0-103.798-81.14-189.46-184.458-205.545v-189.874c0-22.498-26.938-34.055-43.241-18.551l-206.713 196.578h-201.741zM703.115 276.658c0 13.672 10.744 24.932 24.401 25.572 88.233 4.137 160.057 73.352 160.057 156.864v168.117c0 91.35-74.841 166.192-166.192 166.192h-418.761c-91.347 0-166.192-74.845-166.192-166.192v-168.117c0-91.343 74.848-166.192 166.192-166.192h211.97c6.567 0 12.883-2.524 17.641-7.049l170.884-162.506v153.311z" />
<glyph unicode="&#xe90a;" glyph-name="close-circle" d="M512.425 497.806l149.333 149.333 48.272-48.272-149.333-149.333 149.333-149.333-48.272-48.272-149.333 149.333-149.333-149.333-48.272 48.272 149.333 149.333-149.333 149.333 48.272 48.272 149.333-149.333zM512.425 22.867c-236.075 0-427.472 191.014-427.472 426.667s191.397 426.667 427.472 426.667c236.075 0 427.472-191.014 427.472-426.667s-191.397-426.667-427.472-426.667zM512.425 74.067c207.821 0 376.272 168.114 376.272 375.467s-168.451 375.467-376.272 375.467c-207.821 0-376.272-168.114-376.272-375.467s168.451-375.467 376.272-375.467z" />
<glyph unicode="&#xe90b;" glyph-name="close" d="M512 492.86l213.333 213.333 48.272-48.272-213.333-213.333 213.333-213.333-48.272-48.272-213.333 213.333-213.333-213.333-48.272 48.272 213.333 213.333-213.333 213.333 48.272 48.272 213.333-213.333z" />
<glyph unicode="&#xe90c;" glyph-name="draw" d="M530.268 146.413l348.926 604.358c14.984 25.953 6.092 59.139-19.861 74.123s-59.139 6.092-74.123-19.861l-348.926-604.358 7.477-95.573 86.507 41.311zM973.163 631.019l-139.269-241.221-44.34 25.6 139.269 241.221-33.65 19.428-328.507-568.991-168.133-80.29-14.533 185.753 356.869 618.115c24.071 41.693 72.311 60.731 116.805 49.637l31.924 55.294 60.889-35.154-34.060-58.993c24.698-32.783 28.924-78.459 7.107-116.246l-2.762-4.784 77.991-45.028-25.6-44.341zM700.302 658.546l94.663-54.653-25.6-44.341-94.663 54.653 25.6 44.341zM344.212 67.386c11.768 7.836 27.661 4.648 35.497-7.12s4.648-27.661-7.12-35.497c-78.652-52.371-153.412-44.005-214.994 24.54-90.973 101.259-111.667 316.341-27.456 394.612 95.060 88.354 229.887-37.339 180.717-149.938-5.658-12.957-20.749-18.874-33.706-13.216s-18.874 20.749-13.216 33.706c28.883 66.143-48.792 138.556-98.939 91.946-61.053-56.746-43.378-240.454 30.686-322.892 44.376-49.393 90.791-54.587 148.531-16.141z" />
<glyph unicode="&#xe90d;" glyph-name="down-arrow" d="M542.72 180.992l133.706 133.706 43.445-43.445-163.578-163.578 0.231-0.231-43.445-43.445-0.231 0.231-0.231-0.231-43.445 43.445 0.231 0.231-162.522 162.522 43.445 43.445 130.953-130.953v646.564h61.44v-648.262z" />
<glyph unicode="&#xe90e;" glyph-name="down-chevron" d="M512.093 416.187l182.005 182.005 48.272-48.272-230.271-230.282-229.108 229.108 48.272 48.272 180.831-180.831z" />
<glyph unicode="&#xe90f;" glyph-name="clock-reverse" d="M104.413 506.711c26.619 199.93 200.969 354.147 411.873 354.147 229.296 0 415.392-182.296 415.392-407.437s-186.096-407.437-415.392-407.437c-111.157 0-215.46 43.057-292.775 118.405l35.735 36.667c67.822-66.097 159.332-103.872 257.040-103.872 201.253 0 364.192 159.612 364.192 356.237s-162.939 356.237-364.192 356.237c-194.481 0-353.179-149.045-363.643-336.51l101.535 101.535 36.204-36.204-144.852-144.852-0.221 0.221-0.221-0.221-143.061 143.061 36.204 36.204 66.181-66.181zM530.512 457.175l127.022-105.442c17.569-14.584 19.989-40.65 5.405-58.219s-40.65-19.989-58.219-5.405l-141.957 117.84c-11.061 9.182-16.118 22.915-14.706 36.213-0.153 1.446-0.232 2.915-0.232 4.402v151.118c0 22.834 18.51 41.344 41.344 41.344s41.344-18.51 41.344-41.344v-140.508z" />
<glyph unicode="&#xe910;" glyph-name="clock" d="M522.257 452.583l131.072-108.804c18.129-15.049 20.626-41.946 5.577-60.075s-41.946-20.626-60.075-5.577l-146.484 121.598c-11.264 9.351-16.494 23.275-15.229 36.828-0.122 1.317-0.185 2.651-0.185 4v155.937c0 23.562 19.101 42.662 42.662 42.662s42.662-19.101 42.662-42.662v-143.907zM504.907 22.085c-236.051 0-427.429 190.995-427.429 426.624s191.378 426.624 427.429 426.624c236.051 0 427.429-190.995 427.429-426.624s-191.378-426.624-427.429-426.624zM504.907 73.28c207.8 0 376.234 168.097 376.234 375.429s-168.434 375.429-376.234 375.429c-207.8 0-376.234-168.097-376.234-375.429s168.434-375.429 376.234-375.429z" />
<glyph unicode="&#xe911;" glyph-name="envelope" d="M140.030 735.744h743.941c19.019 0 25.916-1.98 32.869-5.699s12.41-9.175 16.128-16.128c3.719-6.953 5.699-13.85 5.699-32.869v-466.096c0-19.019-1.98-25.916-5.699-32.869s-9.175-12.41-16.128-16.128c-6.953-3.719-13.85-5.699-32.869-5.699h-743.941c-19.019 0-25.916 1.98-32.869 5.699s-12.41 9.175-16.128 16.128c-3.719 6.953-5.699 13.85-5.699 32.869v466.096c0 19.019 1.98 25.916 5.699 32.869s9.175 12.41 16.128 16.128c6.953 3.719 13.85 5.699 32.869 5.699zM172.91 684.628l339.020-264.967 339.159 265.076-678.179-0.109zM137.99 646.12c0-264.911 0-403.615 0-416.112s8.022-18.745 24.065-18.745c461.622 0 697.518 0 707.69 0s15.594 6.248 16.266 18.745v416.112l-373.924-292.372-374.096 292.372z" />
<glyph unicode="&#xe912;" glyph-name="expand" d="M216.003 115.255h117.458v-51.2h-205.255v204.261h51.2v-117.25l224.229 224.229 36.204-36.204-223.837-223.837zM845.443 151.588v117.721h51.2v-205.255h-51.2v0.13h-153.061v51.2h116.857l-225.616 225.616 36.204 36.204 225.616-225.616zM808.579 781.074h-117.366v51.2h205.254v-204.261h-51.2v117.342l-224.322-224.322-36.204 36.204 223.837 223.837zM178.899 744.27v-117.25h-51.2v205.255h204.261v-51.2h-117.458l222.057-222.057-36.204-36.204-221.457 221.457z" />
<glyph unicode="&#xe913;" glyph-name="heart" d="M696.050 824.538c132.757 0 231.587-101.348 231.587-233.431 0-47.136-12.945-92.495-38.571-138.5-46.282-83.088-107.943-144.52-303.577-316.388l-73.424-64.757-73.536 64.364c-196.54 173.034-257.753 234.121-303.916 317.348-25.413 45.817-38.249 90.995-38.249 137.933 0 132.083 98.83 233.431 231.587 233.431 60.536 0 126.006-40.968 184.050-100.946 58.044 59.978 123.514 100.946 184.050 100.946zM551.659 174.651c190.308 167.189 250.507 227.165 292.678 302.872 21.566 38.717 32.1 75.625 32.1 113.585 0 104.090-76.199 182.231-180.387 182.231-48.263 0-111.262-43.475-164.822-104.41l-19.228-21.876-19.228 21.876c-53.56 60.935-116.559 104.41-164.822 104.41-104.187 0-180.387-78.14-180.387-182.231 0-37.797 10.444-74.552 31.823-113.099 42.050-75.813 101.831-135.47 292.919-303.705l39.63-34.687 39.724 35.034z" />
<glyph unicode="&#xe914;" glyph-name="external-link" d="M844.335 95.863c0 11.333 9.188 20.521 20.521 20.521h-20.521v-20.521zM844.335 423.865h51.2v-328.002c0-16.944-13.735-30.679-30.679-30.679h-705.618c-16.944 0-30.679 13.735-30.679 30.679v705.618c0 16.944 13.735 30.679 30.679 30.679h331.41v-51.2h-310.889v-664.576h664.576v307.481zM179.759 95.863c0 11.333-9.188 20.521-20.521 20.521h20.521v-20.521zM159.238 780.96c11.333 0 20.521 9.188 20.521 20.521v-20.521h-20.521zM159.238 780.96c11.333 0 20.521 9.188 20.521 20.521v-20.521h-20.521zM179.759 116.384h664.576v307.481h51.2v-328.002c0-16.944-13.735-30.679-30.679-30.679h-705.618c-16.944 0-30.679 13.735-30.679 30.679v705.618c0 16.944 13.735 30.679 30.679 30.679h331.41v-51.2h-310.889v-664.576zM179.759 95.863c0 11.333-9.188 20.521-20.521 20.521h20.521v-20.521zM808.076 783.031h-191.897v51.2h282.661v-281.060h-51.2v197.016l-397.892-397.892-36.204 36.204 394.532 394.532zM864.856 116.384c-11.333 0-20.521-9.188-20.521-20.521v20.521h20.521z" />
<glyph unicode="&#xe915;" glyph-name="gear" d="M667.161 446.844c0 85.108-68.957 154.053-154.1 154.053-85.102 0-154.053-68.951-154.053-154.053 0-85.113 68.962-154.1 154.053-154.1 85.132 0 154.1 68.981 154.1 154.1zM259.306 652.742c7.136 8.769 14.719 17.18 22.73 25.19 8.033 8.033 16.412 15.599 25.104 22.674l-32.537 98.017c-4.229 12.738 2.099 26.58 14.499 31.716l111.157 46.045c12.399 5.136 26.66-0.175 32.678-12.17l46.309-92.295c11.195 1.157 22.487 1.739 33.858 1.739 11.345 0 22.641-0.583 33.821-1.738l46.309 92.293c6.019 11.995 20.279 17.306 32.678 12.17l111.157-46.045c12.4-5.137 18.728-18.978 14.499-31.716l-32.535-98.011c8.735-7.099 17.133-14.669 25.144-22.68 8.018-8.018 15.595-16.424 22.7-25.168l98.011 32.535c12.738 4.229 26.58-2.099 31.716-14.499l46.045-111.157c5.138-12.404-0.179-26.67-12.182-32.684l-92.309-46.256c1.159-11.203 1.742-22.503 1.742-33.882 0-11.373-0.582-22.664-1.739-33.844l92.294-46.309c11.997-6.019 17.307-20.282 12.169-32.682l-46.045-111.109c-5.138-12.399-18.98-18.725-31.718-14.495l-97.965 32.534c-7.104-8.744-14.681-17.149-22.699-25.168s-16.424-15.595-25.168-22.7l32.535-98.011c4.229-12.738-2.099-26.58-14.499-31.716l-111.157-46.045c-12.399-5.136-26.66 0.175-32.678 12.17l-46.311 92.297c-11.177-1.155-22.471-1.737-33.814-1.737-11.373 0-22.666 0.582-33.863 1.74l-46.31-92.295c-6.019-11.995-20.279-17.306-32.678-12.17l-111.157 46.045c-12.4 5.137-18.728 18.978-14.499 31.716l32.538 98.019c-8.697 7.078-17.081 14.648-25.119 22.686-8.042 8.042-15.631 16.446-22.72 25.152l-98.019-32.538c-12.738-4.229-26.58 2.099-31.716 14.499l-46.045 111.157c-5.138 12.404 0.179 26.67 12.182 32.684l92.313 46.258c-1.158 11.186-1.741 22.483-1.741 33.861 0 11.373 0.582 22.666 1.74 33.863l-92.295 46.31c-11.995 6.019-17.306 20.279-12.17 32.678l46.045 111.157c5.138 12.405 18.988 18.732 31.728 14.495l97.988-32.582zM289.267 607.73c-6.37-8.839-17.963-12.934-28.847-9.315l-92.646 30.805-27.814-67.144 87.3-43.803c10.426-5.232 15.725-16.62 13.698-27.541-2.317-14.43-3.488-29.079-3.488-43.911 0-14.732 1.155-29.277 3.437-43.552 2.213-11.036-3.093-22.621-13.641-27.907l-87.33-43.761 27.813-67.144 92.701 30.773c11.070 3.675 22.869-0.628 29.161-9.781 8.497-11.739 18.084-22.972 28.609-33.497 10.554-10.554 21.786-20.131 33.589-28.662 9.067-6.313 13.314-18.054 9.656-29.074l-30.773-92.701 67.155-27.818 43.803 87.3c5.232 10.426 16.62 15.725 27.541 13.698 14.43-2.317 29.079-3.488 43.911-3.488 14.89 0 29.664 1.187 44.097 3.525 10.85 1.909 22.114-3.388 27.308-13.74l43.803-87.3 67.155 27.818-30.773 92.701c-3.651 10.998 0.572 22.714 9.602 29.036 11.91 8.603 23.196 18.205 33.696 28.705 10.574 10.574 20.238 21.945 28.887 33.948 6.364 8.856 17.966 12.966 28.862 9.348l92.655-30.77 27.81 67.108-87.296 43.801c-10.355 5.196-15.652 16.464-13.739 27.318 2.343 14.456 3.528 29.19 3.528 44.116 0 14.649-1.142 29.12-3.402 43.377-2.315 11.094 2.991 22.785 13.601 28.101l87.33 43.761-27.813 67.144-92.701-30.773c-10.998-3.651-22.714 0.572-29.036 9.602-8.603 11.91-18.205 23.196-28.705 33.696-10.471 10.471-21.724 20.050-33.599 28.635-9.080 6.31-13.336 18.060-9.675 29.087l30.773 92.701-67.155 27.818-43.803-87.3c-5.228-10.42-16.606-15.718-27.521-13.702-14.367 2.315-29.070 3.491-43.889 3.491-14.82 0-29.458-1.169-43.877-3.482-10.931-2.042-22.335 3.257-27.571 13.693l-43.803 87.3-67.155-27.818 30.773-92.701c3.675-11.070-0.628-22.869-9.782-29.161-11.752-8.506-22.937-18.049-33.449-28.561-10.544-10.544-20.224-21.922-28.971-33.998zM718.361 446.844c0-113.394-91.889-205.3-205.3-205.3-113.372 0-205.253 91.914-205.253 205.3 0 113.379 91.874 205.253 205.253 205.253 113.418 0 205.3-91.865 205.3-205.253z" />
<glyph unicode="&#xe916;" glyph-name="house" d="M512 739.919l-271.962-243.605v-353.605h174.592c14.138 0 25.6-11.462 25.6-25.6s-11.462-25.6-25.6-25.6h-200.192c-14.138 0-25.6 11.462-25.6 25.6v333.343l-70.896-63.504-34.161 38.137 425.941 381.53 2.278-2.543 2.278 2.543 425.941-381.53-34.161-38.137-68.576 61.425v-331.264c0-14.138-11.462-25.6-25.6-25.6h-201.109c-14.138 0-25.6 11.462-25.6 25.6s11.462 25.6 25.6 25.6h175.509v351.525l-274.283 245.684zM440.23 117.109c0-14.138-11.462-25.6-25.6-25.6s-25.6 11.462-25.6 25.6v199.797c0 69.272 56.103 131.791 123.67 131.791 68.305 0 123.675-55.368 123.675-123.67v-207.918c0-14.138-11.462-25.6-25.6-25.6s-25.6 11.462-25.6 25.6v207.918c0 40.025-32.447 72.47-72.475 72.47-37.981 0-72.47-38.434-72.47-80.591v-199.797z" />
<glyph unicode="&#xe917;" glyph-name="left-arrow" d="M242.511 419.754l135.493-135.493-43.445-43.445-207.254 207.254 43.445 43.445 0.174-0.174 163.635 163.635 43.445-43.445-130.337-130.337h649.694v-61.44h-654.849z" />
<glyph unicode="&#xe918;" glyph-name="left-chevron" d="M474.002 447.9l181.986-181.986-48.272-48.272-230.282 230.282 230.282 230.234 48.272-48.272-181.986-181.986z" />
<glyph unicode="&#xe919;" glyph-name="location-pin" d="M533.064 52.048l-21.064-30.494-21.064 30.494c-176.532 255.568-264.803 432.11-264.803 535.083 0 157.88 127.987 285.867 285.867 285.867s285.867-127.987 285.867-285.867c0-102.973-88.271-279.515-264.803-535.083zM746.667 587.131c0 129.603-105.064 234.667-234.667 234.667s-234.667-105.064-234.667-234.667c0-84.952 78.219-244.964 234.667-475.24 156.447 230.276 234.667 390.288 234.667 475.24zM512 439.333c-76.913 0-139.264 62.351-139.264 139.264s62.351 139.264 139.264 139.264c76.913 0 139.264-62.351 139.264-139.264s-62.351-139.264-139.264-139.264zM512 490.533c48.636 0 88.064 39.428 88.064 88.064s-39.428 88.064-88.064 88.064c-48.636 0-88.064-39.428-88.064-88.064s39.428-88.064 88.064-88.064z" />
<glyph unicode="&#xe91a;" glyph-name="info-circle" d="M512 25.127c-234.699 0-424.96 190.261-424.96 424.96s190.261 424.96 424.96 424.96c234.699 0 424.96-190.261 424.96-424.96s-190.261-424.96-424.96-424.96zM512 76.327c206.422 0 373.76 167.338 373.76 373.76s-167.338 373.76-373.76 373.76c-206.422 0-373.76-167.338-373.76-373.76s167.338-373.76 373.76-373.76zM554.667 530.845v-313.344h-85.333v313.344h85.333zM554.667 692.938v-74.411h-85.333v74.411h85.333z" />
<glyph unicode="&#xe91b;" glyph-name="layers" d="M193.431 543.335l319.318-232.144 319.318 232.144-319.318 232.144-319.318-232.144zM550.764 814.169l334.524-243.198c20.995-15.263 20.995-40.009 0-55.272l-334.524-243.198c-20.995-15.263-55.034-15.263-76.028 0l-334.524 243.198c-20.995 15.263-20.995 40.009 0 55.272l334.524 243.198c20.995 15.263 55.034 15.263 76.028 0zM841.739 373.627l45.617-33.163-333.443-243.097c-20.995-15.263-55.034-15.263-76.028 0l-339.741 240.866 45.505 35.394 289.864-211.109c13.359-7.72 26.439-11.592 39.237-11.615s25.47 3.801 38.013 11.474l290.976 211.249z" />
<glyph unicode="&#xe91c;" glyph-name="locked" d="M289.212 499.514v61.394c0 120.514 97.871 218.189 218.575 218.189s218.575-97.675 218.575-218.189v-61.394h86.949c20.479 0 35.868-17.265 35.868-37.121v-403.851c0-19.855-15.389-37.121-35.868-37.121h-611.049c-20.529 0-35.868 17.262-35.868 37.121v403.851c0 19.858 15.338 37.121 35.868 37.121h86.949zM340.397 499.514h334.781v61.394c0 92.222-74.932 167.004-167.39 167.004s-167.39-74.782-167.39-167.004v-61.394zM797.994 448.329h-580.414v-375.722h580.414v375.722zM556.925 322.888v-130.957h-89.85v130.957h89.85z" />
<glyph unicode="&#xe91d;" glyph-name="money-circle" d="M513.287 24.848c-234.699 0-424.96 190.261-424.96 424.96s190.261 424.96 424.96 424.96c234.699 0 424.96-190.261 424.96-424.96s-190.261-424.96-424.96-424.96zM513.287 76.048c206.422 0 373.76 167.338 373.76 373.76s-167.338 373.76-373.76 373.76c-206.422 0-373.76-167.338-373.76-373.76s167.338-373.76 373.76-373.76zM447.787 393.458c-0.353-20.105 4.938-35.976 15.872-47.616s24.513-19.046 40.738-22.221v110.575c-1.764 0.705-4.144 1.499-7.142 2.381s-6.261 1.675-9.788 2.381c-13.050 3.527-25.924 7.671-38.622 12.433s-24.072 11.11-34.125 19.046c-10.052 7.936-18.076 17.812-24.073 29.628s-8.994 26.541-8.994 44.177c0 17.988 3.439 33.86 10.317 47.616s15.96 25.307 27.247 34.654c11.287 9.347 24.337 16.577 39.151 21.692s30.157 8.201 46.029 9.259v40.738h31.215v-40.738c15.872-1.764 30.774-5.202 44.706-10.317s26.189-12.168 36.77-21.163c10.581-8.994 19.223-20.193 25.924-33.596s10.581-29.275 11.639-47.616h-75.127c-0.353 14.109-4.762 26.101-13.227 35.977s-18.694 14.814-30.686 14.814v-93.645c4.233-1.058 8.553-2.116 12.962-3.174s9.082-2.293 14.020-3.703c26.101-7.054 46.205-15.784 60.314-26.189s24.513-21.251 31.215-32.538c6.702-11.287 10.67-22.573 11.904-33.86s1.852-21.339 1.852-30.157c0-7.76-1.94-17.547-5.82-29.363s-10.846-23.367-20.898-34.654c-10.052-11.287-23.543-21.339-40.474-30.157s-38.622-14.108-65.075-15.872v-44.971h-31.215v44.971c-39.504 2.822-70.366 14.99-92.587 36.506s-35.095 53.083-38.622 94.703h74.598zM535.612 323.622c6.349 0.705 12.962 2.204 19.84 4.497s13.050 5.555 18.517 9.788c5.467 4.233 9.964 9.435 13.491 15.607s5.291 13.491 5.291 21.956c0 13.756-4.321 24.072-12.962 30.95s-23.367 13.138-44.177 18.782v-101.581zM504.397 595.562c-5.996 0-11.816-0.882-17.459-2.645s-10.758-4.497-15.343-8.201c-4.585-3.703-8.201-8.289-10.846-13.756s-3.968-11.904-3.968-19.311c0-11.64 3.703-20.634 11.11-26.982s19.575-11.463 36.506-15.343v86.238z" />
<glyph unicode="&#xe91e;" glyph-name="more--vertical" d="M506.351 673.951c-40.867 0-73.996 33.415-73.996 74.634s33.129 74.634 73.996 74.634c40.867 0 73.996-33.415 73.996-74.634s-33.129-74.634-73.996-74.634zM506.351 376.020c-40.867 0-73.996 33.415-73.996 74.634s33.129 74.634 73.996 74.634c40.867 0 73.996-33.415 73.996-74.634s-33.129-74.634-73.996-74.634zM506.351 78.089c-40.867 0-73.996 33.415-73.996 74.634s33.129 74.634 73.996 74.634c40.867 0 73.996-33.415 73.996-74.634s-33.129-74.634-73.996-74.634z" />
<glyph unicode="&#xe91f;" glyph-name="no-show" d="M56.603 475.453c2.128 2.619 5.432 6.332 9.326 10.471 7.984 8.488 17.194 17.387 27.4 26.461 32.050 28.497 69.622 55.055 111.735 78.864 14.079 7.96 28.561 15.542 43.432 22.737 10.871 5.26 23.948 0.711 29.207-10.161s0.711-23.948-10.161-29.207c-14.032-6.789-27.688-13.938-40.955-21.439-39.422-22.289-74.479-47.052-104.2-73.477-6.746-5.998-12.983-11.882-18.616-17.553 160.464-155.28 330.898-222.434 483.872-191.397 11.835 2.401 23.377-5.247 25.778-17.082s-5.247-23.377-17.082-25.778c-172.845-35.068-363.199 41.924-538.278 217.92-4.002 3.917-6.214 9.082-6.515 14.373-0.273 5.5 1.417 10.926 5.058 15.268zM350.986 659.984c220.142 71.135 424.687 11.378 618.050-183.033 8.208-8.122 8.706-21.342 0.939-30.069-0.038-0.044-0.078-0.088-0.117-0.131-2.057-2.303-5.299-5.717-9.066-9.541-7.657-7.773-16.235-15.942-25.508-24.282-29.301-26.354-61.567-50.953-95.931-73.051-36.202-23.279-73.469-42.935-111.588-58.82l116.406-117.070c8.515-8.564 8.476-22.409-0.088-30.924s-22.409-8.476-30.924 0.088l-629.644 633.234c-8.515 8.564-8.476 22.409 0.088 30.924s22.409 8.476 30.924-0.088l136.459-137.237zM385.897 624.874l55.082-55.396c20.533 11.003 43.421 16.758 66.931 16.758 78.678 0 142.445-64.090 142.445-143.133 0-23.664-5.747-46.701-16.735-67.363l60.64-60.986c41.53 15.915 82.124 36.626 121.439 61.907 32.378 20.821 62.789 44.003 90.339 68.783 5.934 5.337 11.547 10.584 16.764 15.665-170.695 164.661-346.629 217.598-536.905 163.765zM600.634 408.913c3.951 10.863 5.988 22.398 5.988 34.19 0 54.906-44.204 99.4-98.711 99.4-11.752 0-23.247-2.065-34.070-6.073l126.794-127.517zM535.055 339.336c-0.099-12.076-9.969-21.786-22.045-21.687-78.676 0.644-141.916 65.249-141.277 144.291 0.098 12.076 9.967 21.787 22.043 21.689s21.787-9.967 21.689-22.043c-0.444-54.908 43.395-99.76 97.903-100.206 12.076-0.099 21.786-9.969 21.687-22.045z" />
<glyph unicode="&#xe920;" glyph-name="page" d="M795.816 623.089c-0.533 0.543-1.029 1.048-1.493 1.521 0.496-0.493 0.994-0.988 1.493-1.485zM795.816 593.854h-244.421v245.906l-324.135 0.178v-759.989h568.556v513.905zM597.475 821.608v-181.674h181.463c-15.018 14.98-28.616 28.615-41.764 41.863-7.714 7.773-15.046 15.183-23.783 24.030-10.816 10.958-10.816 10.958-21.191 21.465-31.2 31.577-56.654 56.981-94.725 94.315zM808.8 33.868h-594.524c-23.181 0-33.096 21.606-33.096 44.885v762.386c0 23.279 9.915 44.885 33.109 44.885l383.442-0.211 6.708-6.552c53.276-52.031 82.764-81.351 119.883-118.919 11.053-11.194 11.053-11.194 21.855-22.138 8.712-8.822 16.019-16.206 23.703-23.949 19.636-19.786 40.283-40.44 65.211-65.198l6.804-6.758v-563.547c0-23.238-9.965-44.885-33.096-44.885zM321.855 165.109v61.44h395.239v-61.44h-395.239zM321.855 293.808v61.44h395.239v-61.44h-395.239zM321.855 422.506v61.44h395.239v-61.44h-395.239z" />
<glyph unicode="&#xe921;" glyph-name="pencil" d="M684.024 688.891l-413.714-413.409 85.279-85.279 412.691 414.432-84.255 84.255zM651.44 721.475l-0.157 0.157 94.422 94.422c17.737 17.686 46.416 17.686 64.125-0.024l86.329-86.329c17.757-17.72 17.752-46.469 0.014-64.154-62.6-61.707-94.086-92.739-94.459-93.095-0.023-0.021-0.121 0.032-0.294 0.16l-428.589-430.397c-2.147-2.405-4.861-4.41-8.1-5.803l-206.834-88.93c-19.131-8.226-38.493 11.136-30.267 30.267l88.93 206.834c1.323 3.077 3.198 5.679 5.443 7.772l429.437 429.12zM245.468 235.157l-52.676-122.513 122.513 52.676-69.838 69.838zM777.755 782.938l-61.306-61.306 85.264-85.264c6.592 6.636 11.404 11.435 14.749 14.482l46.613 46.767-85.321 85.321z" />
<glyph unicode="&#xe922;" glyph-name="radius" d="M591.2 448c0-43.741-35.459-79.2-79.2-79.2s-79.2 35.459-79.2 79.2c0 43.741 35.459 79.2 79.2 79.2s79.2-35.459 79.2-79.2zM1024 448c0-56.554-45.846-102.4-102.4-102.4s-102.4 45.846-102.4 102.4c0 56.554 45.846 102.4 102.4 102.4s102.4-45.846 102.4-102.4zM512 56.187c216.392 0 391.813 175.42 391.813 391.813s-175.42 391.813-391.813 391.813c-216.392 0-391.813-175.42-391.813-391.813s175.42-391.813 391.813-391.813zM512 4.987c-244.669 0-443.013 198.343-443.013 443.013s198.343 443.013 443.013 443.013c244.669 0 443.013-198.343 443.013-443.013s-198.343-443.013-443.013-443.013zM563.2 422.4v51.2h416.224v-51.2z" />
<glyph unicode="&#xe923;" glyph-name="plus" d="M546.864 491.784h241.358v-68.267h-241.358v-241.358h-68.267v241.358h-241.358v68.267h241.358v241.358h68.267v-241.358z" />
<glyph unicode="&#xe924;" glyph-name="location-services" d="M203.512 278.777c-24.735-2.452-38.1 28.233-19.459 44.674l608.346 536.567c18.399 16.228 46.882-0.217 42.028-24.265l-160.507-795.127c-4.972-24.632-38.755-28.103-48.633-4.997l-116.864 273.371-304.911-30.223zM277.448 337.556l244.608 24.246c11.121 1.102 21.672-5.137 26.064-15.412l91.895-214.964 129.16 639.839-491.728-433.709z" />
<glyph unicode="&#xe925;" glyph-name="person" d="M517.629 355.688c176.206 0 292.992-47.868 336.88-146.012l6.301-14.091-9.52-12.15c-79.987-102.076-201.76-162.894-333.66-162.894-131.891 0-253.662 60.81-333.703 162.887l-9.528 12.151 6.303 14.096c43.89 98.147 160.679 146.012 336.928 146.012zM517.629 868.782c234.24 0 424.129-189.874 424.129-424.129 0-95.894-32.213-186.918-90.472-261.239l-26.195-33.416-17.325 38.764c-33.744 75.501-131.866 115.708-290.138 115.708-158.314 0-256.441-40.205-290.186-115.708l-17.334-38.783-26.193 33.445c-58.218 74.337-90.417 165.358-90.417 261.23 0 234.272 189.858 424.129 424.129 424.129zM890.558 444.652c0 205.977-166.966 372.929-372.929 372.929-205.995 0-372.929-166.935-372.929-372.929 0-71.27 20.22-139.435 57.449-198.35 54.68 73.454 162.731 109.366 315.48 109.366 152.721 0 260.768-35.919 315.442-109.38 37.256 58.905 57.487 127.075 57.487 198.364zM517.629 304.488c-148.411 0-243.971-35.375-283.131-102.018 70.353-82.251 172.673-130.728 283.131-130.728 110.463 0 212.78 48.481 283.086 130.723-39.157 66.644-134.711 102.023-283.086 102.023zM517.629 311.28c-110.848 0-200.711 89.863-200.711 200.711s89.863 200.711 200.711 200.711c110.848 0 200.711-89.863 200.711-200.711s-89.863-200.711-200.711-200.711zM517.629 362.48c82.571 0 149.511 66.94 149.511 149.511s-66.94 149.511-149.511 149.511c-82.571 0-149.511-66.94-149.511-149.511s66.94-149.511 149.511-149.511z" />
<glyph unicode="&#xe926;" glyph-name="right-arrow" d="M775.225 477.014l-134.325 134.325 43.445 43.445 207.254-207.423-206.197-206.197-43.445 43.445 130.966 130.966h-651.005v61.44h653.307z" />
<glyph unicode="&#xe927;" glyph-name="right-chevron" d="M544.454 448.32l-182.148 182.148 48.272 48.272 230.282-230.282-0.138-0.138 0.138-0.138-229.108-229.108-48.272 48.272 180.975 180.975z" />
<glyph unicode="&#xe928;" glyph-name="question-circle" d="M512 28.184c-234.699 0-424.96 190.261-424.96 424.96s190.261 424.96 424.96 424.96c234.699 0 424.96-190.261 424.96-424.96s-190.261-424.96-424.96-424.96zM512 79.384c206.422 0 373.76 167.338 373.76 373.76s-167.338 373.76-373.76 373.76c-206.422 0-373.76-167.338-373.76-373.76s167.338-373.76 373.76-373.76zM468.96 329.122h80.384v-78.848h-80.384v78.848zM386.748 534.461c0.341 18.432 3.499 35.328 9.472 50.688s14.336 28.672 25.088 39.936c10.752 11.264 23.723 20.053 38.912 26.368s32.171 9.472 50.944 9.472c24.235 0 44.459-3.328 60.672-9.984s29.269-14.933 39.168-24.832c9.899-9.899 16.981-20.565 21.248-32s6.4-22.101 6.4-32c0-16.384-2.133-29.867-6.4-40.448s-9.557-19.627-15.872-27.136c-6.315-7.509-13.312-13.909-20.992-19.2s-14.933-10.581-21.76-15.872c-6.827-5.291-12.885-11.349-18.176-18.176s-8.619-15.36-9.984-25.6v-19.456h-69.12v23.040c1.024 14.677 3.84 26.965 8.448 36.864s9.984 18.347 16.128 25.344c6.144 6.997 12.629 13.056 19.456 18.176s13.141 10.24 18.944 15.36c5.803 5.12 10.496 10.752 14.080 16.896s5.205 13.824 4.864 23.040c0 15.701-3.84 27.307-11.52 34.816s-18.347 11.264-32 11.264c-9.216 0-17.152-1.792-23.808-5.376s-12.117-8.363-16.384-14.336c-4.267-5.973-7.424-12.971-9.472-20.992s-3.072-16.64-3.072-25.856h-75.264z" />
<glyph unicode="&#xe929;" glyph-name="star" d="M512 237.894l202.744-106.589-38.721 225.759 164.023 159.883-226.675 32.938-101.372 205.402-101.372-205.402-226.675-32.938 164.023-159.883-38.721-225.759 202.744 106.589zM241.256 37.711l51.708 301.478-219.037 213.508 302.701 43.985 135.372 274.294 135.372-274.294 302.701-43.985-219.037-213.508 51.708-301.478-270.744 142.339-270.744-142.339zM389.947 598.618l-19.275-14.004 5.956 12.069 13.319 1.935z" />
<glyph unicode="&#xe92a;" glyph-name="unlocked" d="M340.797 498.656h473.056c20.485 0 35.878-17.27 35.878-37.132v-403.971c0-19.861-15.393-37.132-35.878-37.132h-611.231c-20.535 0-35.878 17.268-35.878 37.132v403.971c0 19.864 15.343 37.132 35.878 37.132h86.975v158.61c0 120.55 97.9 218.254 218.64 218.254s218.64-97.704 218.64-218.254v-62.888c0-0.003-0.041-0.003-51.2-0.005v30.096h51.2v-30.095l-51.2-0.001v62.893c0 92.25-74.954 167.054-167.44 167.054s-167.44-74.804-167.44-167.054v-158.61zM798.531 447.456h-580.587v-375.834h580.587v375.834zM556.925 322.888v-130.957h-89.85v130.957h89.85z" />
<glyph unicode="&#xe92b;" glyph-name="up-arrow" d="M481.28 714.264l-133.401-133.401-43.445 43.445 207.254 207.254 43.445-43.445-0.322-0.322 163.487-163.487-43.445-43.445-132.133 132.133v-650.106h-61.44v651.374z" />
<glyph unicode="&#xe92c;" glyph-name="up-chevron" d="M512.011 499.882l-181.877-181.877-48.272 48.272 181.877 181.877-0.133 0.133 48.272 48.272 0.133-0.133 0.133 0.133 48.272-48.272-0.133-0.133 180.704-180.704-48.272-48.272-180.704 180.704z" />
<glyph unicode="&#xe92d;" glyph-name="trash" d="M686.339 780.952h151.705c14.138 0 25.6-11.462 25.6-25.6s-11.462-25.6-25.6-25.6h-651.239c-14.138 0-25.6 11.462-25.6 25.6s11.462 25.6 25.6 25.6h158.895l0.069 13.624c-0.096 0.814-0.096 0.814-0.2 2.145-0.857 12.769 2.061 27.646 11.953 42.038 16.627 24.189 47.637 37.599 93.148 37.599h57.009c2.896 0 5.679-0.481 8.275-1.367 2.596 0.886 5.379 1.367 8.275 1.367h56.983c45.508 0 76.521-13.407 93.157-37.591 9.901-14.394 12.824-29.275 11.971-42.042-0.103-1.324-0.103-1.324-0.002 1.034v-16.805zM635.249 780.952l0.086 19.974c-0.044-0.383-0.058-0.512-0.068-0.617 0.12 2.144-0.632 5.878-3.082 9.44-6.15 8.941-21.111 15.408-50.973 15.408h-56.983c-2.896 0-5.679 0.481-8.275 1.367-2.596-0.886-5.379-1.367-8.275-1.367h-57.009c-29.86 0-44.813-6.466-50.955-15.401-2.472-3.596-3.212-7.369-3.061-9.607-0.016 0.212-0.016 0.212 0.117-2.391v-16.805h238.479zM768.127 49.075c-0.588-6.603-3.649-12.435-8.219-16.616-4.699-4.273-10.876-6.786-17.536-6.712h-460.146c-13.257 0-24.321 10.121-25.499 23.327l-53.026 594.734c-1.256 14.083 9.143 26.517 23.225 27.772s26.517-9.143 27.772-23.225l50.947-571.408h436.983l-25.499-23.328 53 594.734c3.030 33.999 54.028 29.454 50.998-4.545l-53-594.734c-0.594-6.66-3.687-12.496-8.273-16.665-4.517-4.132-10.597-6.662-17.226-6.662-0.924 0.007-1.596 0.041-2.272 0.101-14.083 1.255-24.482 13.689-23.227 27.771l53 594.734 50.998-4.545-53-594.734zM662.897 171.108c-1.103-14.095-13.424-24.628-27.52-23.524s-24.628 13.424-23.524 27.52l31.81 406.394c1.103 14.095 13.424 24.628 27.52 23.524s24.628-13.424 23.524-27.52l-31.81-406.394zM351.583 596.139c4.257 4.98 10.414 8.336 17.462 8.888 14.095 1.103 26.416-9.429 27.52-23.524l31.81-406.394c2.664-34.029-48.38-38.025-51.044-3.995l-31.81 406.394c-0.552 7.048 1.806 13.652 6.063 18.632zM494.386 579.505c0 14.138 11.462 25.6 25.6 25.6s25.6-11.462 25.6-25.6v-394.631c0-14.138-11.462-25.6-25.6-25.6s-25.6 11.462-25.6 25.6v394.631z" />
<glyph unicode="&#xe92e;" glyph-name="location-pin-filled" d="M533.064 52.048l-21.064-30.494-21.064 30.494c-176.532 255.568-264.803 432.11-264.803 535.083 0 157.88 127.987 285.867 285.867 285.867s285.867-127.987 285.867-285.867c0-102.973-88.271-279.515-264.803-535.083zM512 490.533c48.636 0 88.064 39.428 88.064 88.064s-39.428 88.064-88.064 88.064c-48.636 0-88.064-39.428-88.064-88.064s39.428-88.064 88.064-88.064z" />
<glyph unicode="&#xe92f;" glyph-name="heart-filled" d="M696.050 824.538c132.757 0 231.587-101.348 231.587-233.431 0-47.136-12.945-92.495-38.571-138.5-46.282-83.088-107.943-144.52-303.577-316.388l-73.424-64.757-73.536 64.364c-196.54 173.034-257.753 234.121-303.916 317.348-25.413 45.817-38.249 90.995-38.249 137.933 0 132.083 98.83 233.431 231.587 233.431 60.536 0 126.006-40.968 184.050-100.946 58.044 59.978 123.514 100.946 184.050 100.946z" />
<glyph unicode="&#xe930;" glyph-name="heart-broken" d="M432.777 789.44l-1.537 0.024 49.305-140.357-49.406-112.063 68.506-130.866-2.975-120.315 89.375 119.981-64.138 128.2 73.6 114.963-8.643 137.636c36.429 23.784 73.658 37.896 109.187 37.896 132.757 0 231.587-101.348 231.587-233.431 0-47.136-12.945-92.495-38.571-138.5-46.282-83.088-107.943-144.52-303.577-316.388l-73.424-64.757-73.536 64.364c-196.54 173.034-257.753 234.121-303.916 317.348-25.413 45.817-38.249 90.995-38.249 137.933 0 132.083 98.83 233.431 231.587 233.431 34.113 0 69.792-13.009 104.827-35.098z" />
<glyph unicode="&#xe931;" glyph-name="check" d="M409.35 284.865l387.924 387.924 48.346-48.346-436.086-436.11-200.226 200.226 48.174 48.174 151.868-151.868z" />
<glyph unicode="&#xe932;" glyph-name="video" d="M908.736 168.651h-793.106c-21.438 0-38.937 17.287-38.937 38.735v460.122c0 21.447 17.499 38.735 38.937 38.735h793.106c21.381 0 38.937-17.29 38.937-38.735v-460.122c0-21.445-17.556-38.735-38.937-38.735zM896.473 655.042h-768.579v-435.191h768.579v435.191zM693.827 437.433l-277.802-157.988v315.911l277.802-157.923zM467.225 507.355v-139.892l123.016 69.96-123.016 69.931z" />
<glyph unicode="&#xe933;" glyph-name="attention-circle" d="M512.467 872.854c234.605 0 424.79-190.185 424.79-424.79s-190.185-424.79-424.79-424.79c-234.605 0-424.79 190.185-424.79 424.79s190.185 424.79 424.79 424.79zM512.467 821.674c-206.339 0-373.61-167.271-373.61-373.61s167.271-373.61 373.61-373.61c206.339 0 373.61 167.271 373.61 373.61s-167.271 373.61-373.61 373.61zM469.35 402.286v294.329h85.299v-294.329h-85.299zM468.219 195.091v123.35h85.299v-123.35h-85.299z" />
<glyph unicode="&#xe934;" glyph-name="google" d="M632.843 440.967c0-56.127-11.738-106.115-35.214-149.964s-56.936-78.119-100.381-102.81c-43.445-24.691-93.23-37.036-149.357-37.036-40.207 0-78.659 7.825-115.357 23.476s-68.27 36.698-94.714 63.143c-26.445 26.445-47.492 58.016-63.143 94.714s-23.476 75.151-23.476 115.357c0 40.207 7.825 78.659 23.476 115.357s36.698 68.27 63.143 94.714c26.445 26.445 58.016 47.492 94.714 63.143s75.151 23.476 115.357 23.476c77.175 0 143.42-25.905 198.738-77.714l-80.548-77.31c-31.572 30.492-70.968 45.738-118.19 45.738-33.191 0-63.885-8.365-92.083-25.095s-50.528-39.464-66.988-68.202c-16.46-28.738-24.69-60.107-24.69-94.107s8.23-65.369 24.69-94.107c16.46-28.738 38.79-51.472 66.988-68.202s58.893-25.095 92.083-25.095c22.397 0 42.972 3.103 61.726 9.31s34.202 13.964 46.345 23.274c12.143 9.31 22.734 19.901 31.774 31.774s15.651 23.071 19.833 33.595c4.183 10.524 7.083 20.508 8.702 29.952h-168.381v102h280.095c3.238-17 4.857-33.46 4.857-49.381zM983.771 490.348v-85h-84.595v-84.595h-85v84.595h-84.595v85h84.595v84.595h85v-84.595h84.595z" />
<glyph unicode="&#xe935;" glyph-name="twitter" d="M903.886 701.621c-22.452-32.84-49.594-60.82-81.429-83.942 0.335-4.691 0.503-11.728 0.503-21.111 0-43.563-6.367-87.041-19.101-130.437s-32.085-85.031-58.056-124.907c-25.97-39.877-56.883-75.145-92.738-105.807s-79.083-55.123-129.683-73.386c-50.6-18.263-104.718-27.394-162.354-27.394-90.812 0-173.915 24.294-249.312 72.884 11.728-1.34 24.797-2.011 39.206-2.011 75.397 0 142.583 23.121 201.561 69.365-35.185 0.67-66.684 11.477-94.497 32.421s-46.914 47.667-57.302 80.172c11.058-1.675 21.279-2.513 30.661-2.513 14.409 0 28.651 1.843 42.725 5.529-37.531 7.707-68.611 26.389-93.241 56.045s-36.944 64.087-36.944 103.294v2.011c22.787-12.734 47.249-19.603 73.386-20.608-22.117 14.744-39.709 34.012-52.778 57.804s-19.603 49.594-19.603 77.407c0 29.489 7.372 56.799 22.116 81.931 40.547-49.93 89.889-89.89 148.029-119.881s120.383-46.662 186.733-50.013c-2.681 12.734-4.021 25.132-4.021 37.196 0 44.903 15.833 83.188 47.5 114.854s69.951 47.5 114.854 47.5c46.914 0 86.455-17.090 118.624-51.27 36.526 7.037 70.873 20.106 103.042 39.206-12.399-38.536-36.19-68.36-71.376-89.471 31.164 3.351 62.328 11.728 93.492 25.132z" />
<glyph unicode="&#xe936;" glyph-name="credit-card" d="M896.739 640.717v58.027h-768.579v-58.027h768.579zM896.739 562.21h-768.579v-298.658h768.579v298.658zM909.002 212.353h-793.106c-21.438 0-38.937 17.287-38.937 38.735v460.122c0 21.447 17.499 38.735 38.937 38.735h793.106c21.381 0 38.937-17.29 38.937-38.735v-460.122c0-21.445-17.556-38.735-38.937-38.735zM706.168 465.92h110.373v-75.727h-110.373v75.727z" />
<glyph unicode="&#xe937;" glyph-name="camera" d="M906.61 670.014c21.39 0 38.826-17.385 38.826-38.788v-461.985c0-21.403-17.436-38.788-38.826-38.788h-786.551c-21.447 0-38.826 17.382-38.826 38.788v461.985c0 21.405 17.379 38.788 38.826 38.788h204.417l39.343 101.161 149.341-0.471 149.573 0.673 39.352-101.363h204.525zM894.237 181.654v437.16h-227.197l-39.291 101.205-114.554-0.515-114.395 0.36-39.3-101.050h-227.067v-437.16h761.804zM692.060 414.72c0-98.016-79.477-177.493-177.493-177.493s-177.493 79.477-177.493 177.493c0 98.016 79.477 177.493 177.493 177.493s177.493-79.477 177.493-177.493zM623.793 414.72c0 60.314-48.913 109.227-109.227 109.227s-109.227-48.913-109.227-109.227c0-60.314 48.913-109.227 109.227-109.227s109.227 48.913 109.227 109.227z" />
<glyph unicode="&#xe938;" glyph-name="phone1" d="M711.294 186.982v513.229h-404.139v-513.229h404.139zM711.294 135.782h-404.139v-69.030c0-19.681 15.954-35.635 35.635-35.635h332.868c19.681 0 35.635 15.954 35.635 35.635v69.030zM711.294 751.411v81.361c0 19.681-15.954 35.635-35.635 35.635h-332.868c-19.681 0-35.635-15.954-35.635-35.635v-81.361h404.139zM342.791 919.607h332.868c47.958 0 86.835-38.877 86.835-86.835v-766.020c0-47.958-38.877-86.835-86.835-86.835h-332.868c-47.958 0-86.835 38.877-86.835 86.835v766.020c0 47.958 38.877 86.835 86.835 86.835zM479.65 80.86c0 17.733 14.375 32.108 32.108 32.108s32.108-14.375 32.108-32.108c0-17.733-14.375-32.108-32.108-32.108s-32.108 14.375-32.108 32.108zM466.661 786.828c-11.989 0-21.709 9.719-21.709 21.709s9.719 21.709 21.709 21.709h90.194c11.989 0 21.709-9.719 21.709-21.709s-9.719-21.709-21.709-21.709h-90.194z" />
<glyph unicode="&#xe939;" glyph-name="printer" d="M878.65 544.12l-29.936 134.374 0.012 2.588c0.028 6.148-4.899 11.167-11.037 11.262h-75.133v-87.091h-495.667v87.091l-84.274 0.001c-6.173-0.055-11.14-5.090-11.112-11.263l0.008-1.851-21.222-135.111h728.361zM882.671 498.040h-735.898v-316.52c-0.028-6.173 4.939-11.208 10.906-11.262h109.21v123.187l495.667-0.307v-122.88l109.003-0.001c6.173 0.055 11.14 5.090 11.112 11.367v316.416zM762.402 738.424h75.418c30.773-0.275 55.554-24.443 56.926-54.644l34.005-152.639v-349.413c0.143-31.542-25.237-57.267-56.985-57.551h-109.363v-107.52h-495.514v107.52l-109.416 0.001c-31.542 0.283-56.922 26.007-56.779 57.445v343.712l24.757 157.618c0.953 30.586 25.911 55.193 56.958 55.47h84.48v130.714h495.514v-130.714zM312.969 62.737h403.354v184.627h-403.354v-184.627zM312.969 823.057v-171.725h403.354v171.725h-403.354zM218.505 392.977v46.080h99.84v-46.080h-99.84z" />
<glyph unicode="&#xe93a;" glyph-name="caret-down" d="M298.667 533.333l213.333-213.333 213.333 213.333z" />
<glyph unicode="&#xe93b;" glyph-name="school-outline" d="M954.347 519.19l-410.116 228.635c-17.661 9.833-46.843 9.833-64.483 0l-410.094-228.627c-11.729-6.542-18.453-16.871-18.453-28.349s6.725-21.815 18.453-28.357l67.946-37.875v-89.354l-42.768-187.060c-1.346-5.889 0.526-12.1 4.802-15.958 0.878-0.795 21.787-19.351 52.365-19.351s51.494 18.556 52.365 19.351c4.277 3.858 6.149 10.069 4.802 15.958l-42.768 187.060v73.301l71.999-40.142v-105.878c0-83.874 127.849-172.945 273.598-172.945s273.598 89.070 273.598 172.945v105.862l168.752 94.077c11.729 6.534 18.446 16.863 18.453 28.341 0 11.486-6.725 21.815-18.453 28.365zM151.999 144.377c-11.268 0-20.657 3.865-26.697 7.243l26.697 116.782 26.697-116.782c-6.055-3.385-15.444-7.243-26.697-7.243zM737.952 261.154c0-53.766-98.703-125.189-225.956-125.189s-225.956 71.424-225.956 125.189v82.905l196.196-109.377c8.148-4.549 18.721-7.056 29.773-7.056 11.032 0 21.599 2.5 29.753 7.034l196.19 109.384v-82.89zM529.915 276.892c-8.942-4.981-26.888-4.988-35.817 0.015l-268.006 148.308 260.162 58.35c7.388-6.872 12.844-7.438 25.742-7.438 22.292 0 40.372 13.177 40.372 29.429s-18.080 29.429-40.372 29.429c-17.172 0-31.8-7.828-37.633-18.849l-296.808-62.765-66.721 37.198c-0.22 0.245 127.53 71.652 383.251 214.221 8.922 4.981 26.881 4.981 35.81 0l383.264-213.669c0.224-0.25-127.524-71.66-383.244-214.228z" />
<glyph unicode="&#xe93c;" glyph-name="car" d="M807.253 703.573c-8.533 25.173-32.427 43.093-60.587 43.093h-469.333c-28.16 0-51.627-17.92-60.587-43.093l-88.747-255.573v-341.333c0-23.467 19.2-42.667 42.667-42.667h42.667c23.467 0 42.667 19.2 42.667 42.667v42.667h512v-42.667c0-23.467 19.2-42.667 42.667-42.667h42.667c23.467 0 42.667 19.2 42.667 42.667v341.333l-88.747 255.573zM277.333 277.333c-35.413 0-64 28.587-64 64s28.587 64 64 64c35.413 0 64-28.587 64-64s-28.587-64-64-64zM746.667 277.333c-35.413 0-64 28.587-64 64s28.587 64 64 64c35.413 0 64-28.587 64-64s-28.587-64-64-64zM213.333 490.667l64 192h469.333l64-192h-597.333z" />
<glyph unicode="&#xe93d;" glyph-name="school" d="M717.235 432.639l5.715-100.338c0.847-14.606-7.832-28.154-26.037-40.643s-43.077-22.386-74.619-29.689c-31.541-7.303-65.728-10.955-102.561-10.955s-71.020 3.652-102.561 10.955c-31.541 7.303-56.414 17.199-74.619 29.689s-26.884 26.037-26.037 40.643l5.715 100.338 182.26-57.472c4.657-1.482 9.737-2.223 15.241-2.223s10.584 0.741 15.241 2.223l182.26 57.472zM885.523 535.517c0-4.869-2.328-8.15-6.986-9.843l-355.629-111.769c-0.847-0.212-1.905-0.318-3.175-0.318s-2.329 0.106-3.175 0.318l-207.027 65.41c-9.102-7.197-16.617-18.999-22.544-35.404s-9.526-35.298-10.796-56.678c13.336-7.621 20.004-19.157 20.004-34.61 0-14.606-6.139-25.931-18.416-33.975l18.416-137.489c0.423-2.964-0.423-5.61-2.54-7.938-1.905-2.329-4.445-3.493-7.621-3.493h-60.965c-3.175 0-5.715 1.164-7.621 3.493-2.117 2.329-2.964 4.975-2.54 7.938l18.416 137.489c-12.278 8.044-18.416 19.369-18.416 33.975 0 15.453 6.88 27.201 20.639 35.245 2.329 43.819 12.701 78.746 31.118 104.783l-105.736 33.023c-4.657 1.693-6.986 4.975-6.986 9.843s2.328 8.15 6.986 9.843l355.629 111.769c0.847 0.212 1.905 0.318 3.175 0.318s2.329-0.106 3.175-0.318l355.629-111.769c4.657-1.693 6.986-4.975 6.986-9.843z" />
<glyph unicode="&#xe93e;" glyph-name="bath" d="M76.895 428.217c-0.222 1.357-0.338 2.75-0.338 4.17v213.635c0 47.17 37.806 85.568 84.641 85.568s84.641-38.398 84.641-85.568v-37.48c0-14.138-11.462-25.6-25.6-25.6s-25.6 11.462-25.6 25.6v37.48c0 19.069-15.063 34.368-33.441 34.368s-33.441-15.298-33.441-34.368v-194.301h790.43c16.406 0 29.549-11.993 28.997-26.461-5.204-136.491-118.462-280.739-246.353-280.739h-377.661c-127.891 0-241.149 144.249-246.353 280.739-0.038 0.999-0.011 1.986 0.078 2.957zM574.112 400.52h-443.824c16.632-103.642 104.241-204.8 189.286-204.8h384.851c85.045 0 172.654 101.158 189.286 204.8h-146.627v-114.329c0-14.138-11.462-25.6-25.6-25.6h-121.773c-14.138 0-25.6 11.462-25.6 25.6v114.329zM625.312 311.791h70.573v87.475h-70.573v-87.475z" />
<glyph unicode="&#xe93f;" glyph-name="bed" d="M892.136 345.6v7.34c0 51.52-37.175 88.818-87.828 88.818h-579.314c-53.086 0-96.994-39.584-96.994-88.818v-7.34h764.136zM892.136 294.4h-764.136v-105.64h764.136v105.64zM300.27 492.958c-0.056 15.075-1.353 31.068-3.487 46.871-1.309 9.697-2.604 17.077-3.422 21.040l-0.528 5.172c0 20.357 16.367 36.934 41.831 36.428 4.334-0.875 12.116-2.244 21.963-3.622 12.5-1.749 24.793-2.97 36.113-3.433 3.259-0.133 6.399-0.201 9.406-0.201 0.809 0.001 0.809 0.001 1.621 0.006 13.168 0.098 27.548 1.353 42.010 3.39 9.093 1.281 16.12 2.549 19.935 3.35l5.261 0.546c20.762 0 36.764-17.587 36.271-42.631-0.833-4.185-2.141-11.794-3.459-21.559-1.941-14.378-3.196-28.62-3.446-41.706-0.031-1.939-0.036-2.262-0.042-3.651h28.705c-0.056 15.074-1.354 31.065-3.49 46.867-1.311 9.696-2.607 17.076-3.425 21.038l-0.529 5.177c0 20.361 16.379 36.934 41.839 36.428 4.334-0.875 12.116-2.244 21.963-3.622 12.496-1.748 24.786-2.97 36.103-3.433 3.261-0.133 6.403-0.202 9.412-0.202 0.8 0.001 0.8 0.001 1.602 0.006 13.174 0.097 27.562 1.352 42.031 3.39 9.092 1.281 16.118 2.549 19.933 3.35l5.262 0.547c20.764 0 36.767-17.585 36.274-42.634-0.833-4.185-2.142-11.793-3.46-21.558-1.942-14.377-3.198-28.62-3.448-41.704-0.031-1.939-0.036-2.261-0.042-3.651h75.278c6.215 0 12.313-0.373 18.274-1.1v186.542h-621.162v-187.225c7.699 1.174 15.576 1.783 23.575 1.783h75.276zM351.47 492.958h97.629c0.007 1.88 0.012 2.2 0.051 4.629 0.292 15.274 1.713 31.396 3.897 47.576 0.129 0.958 0.259 1.899-0.128 2.746-16.532-2.329-33.073-3.772-48.77-3.889-1-0.006-1-0.006-2.002-0.007-3.727 0-7.562 0.083-11.498 0.244-13.174 0.539-27.075 1.92-41.114 3.884-0.763 0.107-1.516 0.214-2.255 0.32 0.081-0.586 0.162-1.179 0.243-1.779 2.42-17.92 3.893-36.125 3.948-53.723zM677.83 492.958c0.007 1.88 0.012 2.201 0.051 4.629 0.292 15.274 1.714 31.398 3.899 47.578 0.129 0.958 0.259 1.898-0.129 2.744-16.541-2.33-33.090-3.774-48.796-3.889-0.988-0.006-0.988-0.006-1.978-0.007-3.729 0-7.567 0.083-11.506 0.245-13.17 0.539-27.067 1.92-41.103 3.884-0.764 0.107-1.518 0.214-2.259 0.321 0.081-0.585 0.162-1.177 0.243-1.776 2.423-17.921 3.897-36.127 3.952-53.726h97.625zM873.562 475.45c42.264-23.481 69.774-68.529 69.774-122.51v-171.951c0-22.259-10.337-43.429-36.246-43.429h-784.879c-21.487 0-45.412 20.82-45.412 43.429v171.951c0 52.412 30.088 97.071 73.866 121.087-0.293 1.551-0.447 3.151-0.447 4.787v214.688c0 25.629 20.171 36.097 42.073 36.097h644.718c21.566 0 36.771-13.624 36.771-36.097v-214.688c0-1.141-0.075-2.264-0.219-3.365z" />
<glyph unicode="&#xe940;" glyph-name="multi-family" d="M672.021 690.675l-153.321 167.26-153.321-167.26v-683.982h306.642v683.982zM334.715-23.971v726.574l183.985 200.711 183.985-200.711v-726.574h-367.971zM365.379 711.971v-214.65h-310.947l53.662 214.65h257.285zM132.036 681.307l-38.33-153.321h241.009v153.321h-202.679zM982.969 497.321h-310.947v214.65h257.285l53.662-214.65zM905.364 681.307h-202.679v-153.321h241.009l-38.33 153.321zM89.401-23.971v551.956h275.978v-551.956h-275.978zM334.715 6.694v490.628h-214.65v-490.628h214.65zM672.021-23.971v551.956h275.978v-551.956h-275.978zM917.335 6.694v490.628h-214.65v-490.628h214.65zM411.375-23.971v275.978h214.65v-275.978h-214.65zM442.039 6.694h153.321v214.65h-153.321v-214.65zM549.364 98.686v30.664h15.332v-30.664zM534.032 573.982h-30.664v153.321h30.664zM442.039 635.311v30.664h153.321v-30.664zM518.7 589.314c33.864 0 61.328 27.464 61.328 61.328s-27.464 61.328-61.328 61.328c-33.864 0-61.328-27.464-61.328-61.328s27.464-61.328 61.328-61.328zM518.7 558.65c-50.8 0-91.993 41.193-91.993 91.993s41.193 91.993 91.993 91.993c50.8 0 91.993-41.193 91.993-91.993s-41.193-91.993-91.993-91.993zM166.061 299.268h122.657v122.657h-122.657zM457.372 299.268h122.657v122.657h-122.657zM166.061 115.283h122.657v122.657h-122.657zM748.682 299.268h122.657v122.657h-122.657zM748.682 115.283h122.657v122.657h-122.657z" />
<glyph unicode="&#xe941;" glyph-name="condo" d="M796.84 138.745v660.699h-30.823v72.053h-490.968v-72.053h-30.821v-660.699h-47.164v-38.33h646.934l-0.002 38.33h-47.156zM770.663 138.745h-500.262v635.205h500.262v-635.205zM119.878 43.876h801.31v-42.667h-801.31v42.667zM340.918 690.435h85.417v-83.194h-85.417v83.194zM476.418 690.435h85.417v-83.194h-85.417v83.194zM611.918 690.435h85.417v-83.194h-85.417v83.194zM340.918 559.823h85.417v-83.194h-85.417v83.194zM476.418 559.823h85.417v-83.194h-85.417v83.194zM611.918 559.823h85.417v-83.194h-85.417v83.194zM340.918 429.21h85.417v-83.194h-85.417v83.194zM476.418 429.21h85.417v-83.194h-85.417v83.194zM611.918 429.21h85.417v-83.194h-85.417v83.194zM340.918 298.598h85.417v-83.194h-85.417v83.194zM476.418 298.598h85.417v-83.194h-85.417v83.194zM611.918 298.598h85.417v-83.194h-85.417v83.194z" />
<glyph unicode="&#xe942;" glyph-name="farm" d="M368.325 361.163v-333.474h462.222v333.474h-462.222zM866.103 398.216v-407.579h-533.333v407.579h533.333zM830.642 646.245l-231.206 156.005-231.206-156.005-49.188-248.029h560.789l-49.188 248.029zM275.386 361.163l61.034 307.76 263.016 177.468 263.016-177.468 61.034-307.76h-648.1zM510.547 212.953v-185.263h177.778v185.263h-177.778zM723.881 250.005v-259.368h-248.889v259.368h248.889zM510.547 546.426v-74.105h177.778v74.105h-177.778zM723.881 583.479v-148.211h-248.889v148.211h248.889zM199.436 731.689c0 62.021 47.152 111.158 106.667 111.158s106.667-49.137 106.667-111.158v-25.937h35.556v25.937c0 82.484-63.070 148.211-142.222 148.211s-142.222-65.726-142.222-148.211v-741.053h195.556v37.053h-160v704z" />
<glyph unicode="&#xe943;" glyph-name="house-property" d="M241.665 496.857v178.788h50.667v-126.978l213.837 218.661 393.992-402.879-35.827-36.635-358.165 366.244-355.037-363.046-35.827 36.635 126.36 129.21zM627.118 28.469v169.679c0 67.421-53.45 122.077-119.385 122.077s-119.385-54.656-119.385-122.077v-169.679h-179.422v283.263l297.665 304.379 299.949-306.715v-280.927h-179.422zM755.873 80.279v207.657l-249.282 254.905-246.998-252.569v-209.993h78.089v117.87c0 96.035 76.135 173.887 170.051 173.887s170.051-77.852 170.051-173.887v-117.87h78.089z" />
<glyph unicode="&#xe944;" glyph-name="land" d="M80.292 33.71h848.223v-42.667h-848.223v42.667zM615.708 202.587h-500.874l109.386 188.068h-82.519l107.467 182.31h-71.005l186.149 324.321 186.148-324.321h-69.086l107.467-182.31h-82.519l109.386-188.068zM178.164 239.049h374.216l-109.386 189.987h82.519l-107.467 182.31h71.005l-122.82 213.015-122.82-213.015h69.086l-107.467-182.31h82.519l-109.386-189.987zM347.041 219.859h42.667v-207.258h-42.667v207.258zM751.962 166.125h42.667v-149.686h-42.667v149.686z" />
<glyph unicode="&#xe945;" glyph-name="townhouse" d="M524.242 672.037l-162.758 175.415c-5.991 6.459-14.439 10.137-23.287 10.137h-17.74c-8.849 0-17.307-3.679-23.287-10.137l-237.62-256.095c-11.823-12.739-10.99-32.575 1.867-44.29l40.742-37.142v-474.306c0-17.317 14.164-31.352 31.64-31.352h390.232l0.211 667.77zM410.887 45.958h-163.923v186.598c0 38.471 36.774 80.618 81.961 80.618s81.961-42.148 81.961-80.618v-186.598zM465.153 224.89c0 71.001-61.11 128.762-136.227 128.762s-136.227-57.761-136.227-128.762v-180.245h-41.585v434.809c1.939 1.312 3.751 2.776 5.392 4.457l172.868 177.665 172.845-177.675c1.377-1.41 2.925-2.624 4.52-3.773v-435.492h-41.585v180.256zM498.438 610.183c6.356-6.847 15.694-10.065 24.852-9.653l0.037-72.585-173.22 186.050c-5.991 6.459-14.439 10.127-23.287 10.127s-17.297-3.679-23.287-10.127l-148.392-162.971-30.112 26.657 201.782 217.48 171.628-184.978zM515.26 672.037l163.297 175.415c6.010 6.459 14.486 10.137 23.364 10.137h17.798c8.878 0 17.365-3.679 23.364-10.137l238.406-256.095c11.862-12.739 11.026-32.575-1.873-44.29l-40.877-37.142v-474.306c0-17.317-14.211-31.352-31.745-31.352h-391.523l-0.212 667.77zM630.18 44.389h163.923v186.598c0 38.471-36.774 80.618-81.961 80.618s-81.961-42.148-81.961-80.618v-186.598zM574.111 224.89c0 71.001 61.919 128.762 138.030 128.762s138.030-57.761 138.030-128.762v-180.245h42.135v434.809c-1.964 1.312-3.801 2.776-5.463 4.457l-175.156 177.665-175.132-177.675c-1.395-1.41-2.964-2.624-4.58-3.773v-435.492h42.135v180.256zM542.629 610.183c-6.356-6.847-15.694-10.065-24.852-9.653l-0.037-72.585 173.22 186.050c5.991 6.459 14.439 10.127 23.287 10.127s17.297-3.679 23.287-10.127l148.392-162.971 30.112 26.657-201.782 217.48-171.628-184.978zM251.59 462.153h158.202v-42.667h-158.202v42.667zM789.477 462.153h-158.202v-42.667h158.202v42.667z" />
<glyph unicode="&#xe946;" glyph-name="caret-left" d="M618.667 640v-426.667l-213.333 213.333z" />
<glyph unicode="&#xe947;" glyph-name="caret-right" d="M405.333 213.333v426.667l213.333-213.333z" />
<glyph unicode="&#xe948;" glyph-name="caret-up" d="M298.667 320l213.333 213.333 213.333-213.333z" />
<glyph unicode="&#xe949;" glyph-name="sort-table-header" d="M341.333 362.667h341.333l-170.667-170.667-170.667 170.667zM341.333 490.667l170.667 170.667 170.667-170.667h-341.333z" />
<glyph unicode="&#xe94a;" glyph-name="people" d="M407.167 337.142c-42.558 31.946-70.088 82.826-70.088 140.136 0 96.713 78.401 175.115 175.115 175.115s175.115-78.401 175.115-175.115c0-58.056-28.252-109.514-71.758-141.375 107.452-34.214 195.084-119.209 234.033-231.386 4.637-13.356-2.431-27.943-15.787-32.581s-27.943 2.431-32.581 15.787c-44.161 127.189-160.28 213.458-291.842 213.458-131.74 0-247.984-86.504-292.010-213.943-4.617-13.364-19.192-20.454-32.556-15.838s-20.454 19.192-15.838 32.556c39.322 113.824 128.749 199.76 238.197 233.185zM234.406 538.907c-2.161-0.593-4.437-0.909-6.786-0.909-80.086 0-150.867-52.585-177.83-130.243-4.637-13.356-19.224-20.424-32.581-15.787s-20.424 19.224-15.787 32.581c23.33 67.194 73.016 119.735 134.988 146.068-33.733 26.863-55.355 68.287-55.355 114.761 0 80.977 65.645 146.622 146.622 146.622s146.622-65.645 146.622-146.622c0-78.722-62.040-142.955-139.894-146.471zM227.679 589.955c52.7 0 95.422 42.722 95.422 95.422s-42.722 95.422-95.422 95.422c-52.7 0-95.422-42.722-95.422-95.422s42.722-95.422 95.422-95.422zM512.193 353.364c68.436 0 123.915 55.478 123.915 123.915s-55.478 123.915-123.915 123.915c-68.436 0-123.915-55.478-123.915-123.915s55.478-123.915 123.915-123.915zM784.159 538.907c-77.854 3.516-139.894 67.748-139.894 146.471 0 80.977 65.645 146.622 146.622 146.622s146.622-65.645 146.622-146.622c0-46.474-21.622-87.898-55.355-114.761 61.972-26.334 111.658-78.875 134.988-146.068 4.637-13.356-2.431-27.943-15.787-32.581s-27.943 2.431-32.581 15.787c-26.963 77.658-97.743 130.243-177.83 130.243-2.349 0-4.625 0.316-6.786 0.909zM790.887 589.955c52.7 0 95.422 42.722 95.422 95.422s-42.722 95.422-95.422 95.422c-52.7 0-95.422-42.722-95.422-95.422s42.722-95.422 95.422-95.422z" />
<glyph unicode="&#xe94b;" glyph-name="draft" d="M559.252 275.064c-1.276-1.793-2.907-3.369-4.874-4.615-3.091-2.403-6.646-3.926-10.324-4.569l-158.486-65.745c-15.358-6.371-31.314 9.584-24.942 24.942l65.745 158.486c0.642 3.678 2.165 7.232 4.569 10.324 1.246 1.967 2.822 3.598 4.615 4.874l359.376 359.376c9.164 9.164 24.023 9.164 33.187 0l90.51-90.51c9.164-9.164 9.164-24.023 0-33.187l-359.376-359.376zM841.091 623.277l27.757 27.757-57.323 57.323-27.757-27.757 57.323-57.323zM807.904 590.090l-57.323 57.323-267.908-267.908 57.323-57.323 267.908 267.908zM744.533 366.24c0 12.96 10.506 23.467 23.467 23.467s23.467-10.506 23.467-23.467v-216.906c0-36.524-29.609-66.133-66.133-66.133h-597.333c-36.524 0-66.133 29.609-66.133 66.133v597.333c0 36.524 29.609 66.133 66.133 66.133h559.688c12.96 0 23.467-10.506 23.467-23.467s-10.506-23.467-23.467-23.467h-559.688c-10.604 0-19.2-8.596-19.2-19.2v-597.333c0-10.604 8.596-19.2 19.2-19.2h597.333c10.604 0 19.2 8.596 19.2 19.2v216.906zM201.375 620.152c-12.96 0-23.467 10.506-23.467 23.467s10.506 23.467 23.467 23.467h342.333c12.96 0 23.467-10.506 23.467-23.467s-10.506-23.467-23.467-23.467h-342.333zM201.375 476.001c-12.96 0-23.467 10.506-23.467 23.467s10.506 23.467 23.467 23.467h198.151c12.96 0 23.467-10.506 23.467-23.467s-10.506-23.467-23.467-23.467h-198.151zM201.375 331.85c-12.96 0-23.467 10.506-23.467 23.467s10.506 23.467 23.467 23.467h96.536c12.96 0 23.467-10.506 23.467-23.467s-10.506-23.467-23.467-23.467h-96.536zM455.456 340.689l-28.137-73.737 73.862 28.012-45.725 45.725z" />
<glyph unicode="&#xe94c;" glyph-name="google1" d="M853.333 440.084c0-64.573-13.777-122.082-41.331-172.529s-66.825-89.873-117.816-118.279c-50.99-28.406-109.423-42.608-175.299-42.608-47.19 0-92.321 9.003-135.393 27.009s-80.127 42.22-111.165 72.644c-31.038 30.424-55.741 66.745-74.11 108.966s-27.554 86.458-27.554 132.715c0 46.256 9.184 90.494 27.554 132.715s43.072 78.542 74.11 108.966c31.038 30.424 68.092 54.638 111.165 72.644s88.203 27.009 135.393 27.009c90.579 0 168.331-29.802 233.256-89.408l-94.538-88.942c-37.055 35.080-83.294 52.62-138.719 52.62-38.955 0-74.981-9.624-108.077-28.871s-59.304-45.402-78.623-78.465c-19.319-33.062-28.979-69.151-28.979-108.267s9.66-75.205 28.979-108.267c19.319-33.062 45.527-59.217 78.623-78.465s69.122-28.871 108.077-28.871c26.287 0 50.436 3.57 72.447 10.71s40.143 16.065 54.395 26.776c14.252 10.71 26.683 22.895 37.293 36.555s18.369 26.543 23.278 38.65c4.909 12.107 8.314 23.594 10.214 34.459h-197.627v117.348h328.744c3.801-19.558 5.701-38.495 5.701-56.811z" />
<glyph unicode="&#xe94d;" glyph-name="demographics" d="M512.007 754.133c-93.886 0-169.926-76.115-169.926-169.911 0-93.737 76.041-169.822 169.926-169.822 93.849 0 169.807 76.085 169.807 169.822 0 93.796-75.958 169.911-169.807 169.911zM512 925.867c-263.499 0-477.867-214.368-477.867-477.867s214.368-477.867 477.867-477.867c263.499 0 477.867 214.368 477.867 477.867s-214.368 477.867-477.867 477.867zM840.75 144.069c-25.678 79.722-103.286 152.641-205.154 180.992-38.326 10.618-79.99 16.539-123.655 16.539-43.658 0-85.322-5.921-123.648-16.554-101.883-28.366-179.379-101.27-205.027-180.999-73.95 79.931-119.265 186.734-119.265 303.953 0 247.027 200.973 448 448 448s448-200.973 448-448c0-117.212-45.3-224.007-119.25-303.931z" />
<glyph unicode="&#xe94e;" glyph-name="family" d="M570.76 502.698c0-32.189-25.926-58.284-57.908-58.284s-57.908 26.095-57.908 58.284c0 32.189 25.926 58.284 57.908 58.284s57.908-26.095 57.908-58.284zM323.674 735.904c0-48.36-38.95-87.563-86.998-87.563s-86.998 39.203-86.998 87.563c0 48.36 38.95 87.563 86.998 87.563s86.998-39.203 86.998-87.563zM1020.352 398.882l-58.786 121.929c-32.040 66.684-53.634 112.452-117.44 112.452h-113.644c-63.804 0-85.402-45.767-117.44-112.452l-35.732-73.867c25.544-8.507 40.566-26.453 54.11-52.392l69.028 130.659-39.508-201.883 18.196-36.628c9.68-19.965-1.732-58.558-41.398-58.558h62.71v-149.994c0-21.74 17.508-39.364 39.106-39.364 21.6 0 39.11 17.624 39.11 39.364v149.994h17.51v-150.292c0-21.736 17.508-39.36 39.106-39.36 21.602 0 39.112 17.624 39.112 39.36v150.292h60.932l-60.932 297.069 81.064-158.036c8.728-17.996 30.386-25.462 48.27-16.68 17.874 8.785 25.356 30.39 16.626 48.386zM3.648 398.882l58.786 121.929c32.040 66.684 53.634 112.452 117.44 112.452h113.644c63.804 0 85.402-45.767 117.44-112.452l35.732-73.867c-25.544-8.507-40.566-26.453-54.11-52.392l-69.028 130.659 39.508-201.883-18.196-36.628c-9.68-19.965 1.732-58.558 41.398-58.558h-62.71v-149.994c0-21.74-17.508-39.364-39.106-39.364-21.6 0-39.11 17.624-39.11 39.364v149.994h-17.51v-150.292c0-21.736-17.508-39.36-39.106-39.36-21.602 0-39.112 17.624-39.112 39.36v150.292h-60.928l60.932 297.069-81.064-158.036c-8.728-17.996-30.386-25.462-48.27-16.68-17.878 8.785-25.36 30.39-16.63 48.386zM874.28 735.904c0-48.36-38.95-87.563-86.998-87.563s-86.998 39.203-86.998 87.563c0 48.36 38.95 87.563 86.998 87.563s86.998-39.203 86.998-87.563zM628.856 359.531c-21.324 44.386-35.7 74.849-78.168 74.849h-75.642c-42.47 0-56.844-30.463-78.168-74.849l-39.132-81.158c-5.808-11.979-0.83-26.362 11.068-32.208 15.116-7.060 27.974 2.532 32.128 11.104l54.112 105.193-34-176.513h34v-121.061c0-14.469 11.654-26.201 26.030-26.201s26.032 11.732 26.032 26.201v121.061h11.654v-121.259c0-14.467 11.654-26.199 26.030-26.199 14.378 0 26.036 11.732 26.036 26.199v121.259h36l-36 176.513 53.958-105.193c4.154-8.571 16.126-18.161 32.128-11.104 11.898 5.846 16.876 20.229 11.070 32.208l-39.136 81.158z" />
<glyph unicode="&#xe94f;" glyph-name="financials" d="M512 925.867c-263.917 0-477.867-213.933-477.867-477.867 0-263.9 213.95-477.867 477.867-477.867s477.867 213.967 477.867 477.867c0 263.934-213.95 477.867-477.867 477.867zM546.133 197.999v-42.801c0-7.966-6.449-14.4-14.4-14.4h-39.467c-7.951 0-14.4 6.434-14.4 14.4v37.133c-47.467 1.7-99.083 14.601-128.734 32.668-6.5 4-9.316 11.403-6.999 18.268l18.85 54.833c1.284 3.667 4.35 6.63 8.333 8 4.017 1.297 8.467 0.866 12.066-1.267l4.316-2.566c30.067-17.636 69.067-27.77 107.117-27.77 55.42 0 88.516 23.633 88.516 63.166 0 29.498-14.097 52.597-84.134 76.597-97.749 32.599-145.333 80.866-145.333 147.467 0 68.166 49.933 118.999 126.001 135.799v43.275c0 7.966 6.449 14.4 14.4 14.4h39.467c7.953 0 14.4-6.434 14.4-14.4v-37.399c41.931-1.534 80.717-9.967 107.533-24.301 7.2-3.868 10.447-11.834 7.78-19.1l-19.65-53.267c-1.35-3.567-4.401-6.4-8.301-7.733-3.934-1.267-8.267-0.834-11.817 1.167l-4.201 2.334c-16.753 9.534-48.233 19.667-86.317 19.667-57.553 0-77.984-28.834-77.984-53.5 0-32.834 20.934-50.3 89.617-74.633 69.225-25.035 139.874-62.635 139.874-151.535 0-62.999-43.166-125.901-136.533-144.501z" />
<glyph unicode="&#xe950;" glyph-name="lifestyle" d="M0 854.715c0 4.327 0 8.654 1.442 12.98 4.327 15.865 10.096 38.941 18.749 62.017 7.211 20.192 14.423 20.192 30.287 5.769 30.287-28.845 67.786-44.71 109.611-49.037 33.172-2.885 66.344-5.769 100.958-5.769 37.499 0 70.67-10.096 100.958-31.73 33.172-23.076 64.901-47.594 96.631-70.67 28.845-20.192 67.786-20.192 96.631 0 23.076 15.865 44.71 33.172 67.786 50.479 41.825 33.172 86.535 54.806 141.341 51.921h18.749c64.901 0 129.803 7.211 178.839 56.248 11.538 11.538 20.192 10.096 27.403-5.769 18.749-36.056 24.518-74.997 17.307-115.38-11.538-64.901-43.268-121.149-85.093-171.628-10.096-11.538-12.98-23.076-8.654-38.941 17.307-66.344-11.538-116.823-77.882-135.572-31.73-8.654-64.901-12.98-96.631-12.98-67.786-1.442-128.361-17.307-181.724-62.017-33.172-28.845-69.228-28.845-102.4-1.442-54.806 46.152-118.265 63.459-187.493 63.459-30.287 0-63.459 4.327-92.304 12.98-63.459 17.307-93.746 66.344-79.324 128.361 4.327 17.307 4.327 31.73-4.327 43.268-1.442 2.885-11.538 14.423-17.307 23.076-1.442 2.885-5.769 1.442-5.769-1.442v-690.839c0-17.307-12.98-31.73-28.845-33.172-18.749-1.442-36.056 12.98-36.056 31.73v856.699c-1.442 8.654-2.885 17.307-2.885 27.403zM598.535 595.11c21.634-5.769 43.268-8.654 63.459-12.98 47.594 2.885 90.862 17.307 121.149 54.806 27.403 34.614 51.921 72.113 74.997 108.169 8.654 12.98 5.769 25.961-14.423 23.076-54.806-8.654-109.611-14.423-162.975-27.403-47.594-11.538-96.631-80.766-98.073-128.361 1.442-5.769 10.096-15.865 15.865-17.307zM504.789 463.865c31.73 0 53.363 25.961 54.806 69.228-1.442 34.614-21.634 67.786-44.71 98.073-2.885 2.885-15.865 2.885-18.749 0-23.076-31.73-44.71-63.459-44.71-103.842-1.442-37.499 21.634-63.459 53.363-63.459zM148.552 749.431c28.845-60.575 63.459-116.823 125.476-148.552 15.865-8.654 33.172-11.538 50.479-15.865 11.538-2.885 24.518-2.885 36.056 0 17.307 2.885 31.73 5.769 47.594 8.654 17.307 2.885 20.192 12.98 15.865 28.845-21.634 80.766-73.555 125.476-157.206 135.572-34.614 4.327-67.786 7.211-102.4 11.538-12.98 0-23.076-4.327-15.865-20.192z" />
<glyph unicode="&#xe951;" glyph-name="living" d="M878.18 577.572v257.903c0 5.899-1.898 10.747-5.691 14.535-3.797 3.797-8.636 5.691-14.54 5.691h-121.362c-5.904 0-10.747-1.894-14.54-5.691-3.797-3.788-5.691-8.636-5.691-14.535v-123.261l-154.234 128.947c-13.48 10.956-29.497 16.438-48.037 16.438s-34.558-5.482-48.046-16.438l-454.484-378.631c-4.214-3.367-6.534-7.897-6.955-13.588s1.051-10.643 4.427-14.857l39.188-46.773c3.371-3.792 7.798-6.112 13.276-6.955 5.057-0.417 10.113 1.056 15.17 4.427l430.461 358.93c3.847 3.208 10.077 3.208 13.919 0l430.465-358.939c3.371-2.945 7.798-4.427 13.276-4.427h1.898c5.478 0.847 9.905 3.163 13.276 6.955l39.184 46.773c3.371 4.218 4.848 9.166 4.427 14.857-0.417 5.691-2.737 10.222-6.946 13.588l-138.439 115.050zM871.22 396.27l-350.145 291.849c-3.86 3.185-10.122 3.185-13.983 0 0 0-300.259-248.329-349.882-289.887-3.838-3.217-6.951-9.918-6.969-14.925-0.077-22.523-0.177-214.782-0.217-304.133-0.009-25.020 20.267-45.31 45.292-45.31h637.558c25.025 0 45.31 20.29 45.31 45.31v302.23c-0.005 5.007-3.117 11.663-6.964 14.866zM514.075 460.084c46.986-0.068 84.525-37.838 84.489-85.051-0.036-46.85-38.019-84.349-85.277-84.226-46.112 0.109-83.755 37.983-83.818 84.362-0.036 47.172 37.598 84.965 84.607 84.915zM633.516 120.474c-9.071-0.403-18.165-0.118-27.249-0.118h-207.011c-15.718 0.009-21.654 7.041-20.525 25.958 3.743 63.126 29.343 109.183 75.876 138.621 3.543 2.234 5.972 1.695 9.18-1.078 31.409-27.213 69.351-26.996 100.837-0.082 2.025 1.713 6.144 2.347 8.26 1.038 48.803-30.249 74.349-78.608 76.664-144.529 0.412-11.545-6.013-19.334-16.031-19.809z" />
<glyph unicode="&#xe952;" glyph-name="moreinfo" d="M512 925.867c-263.919 0-477.867-213.947-477.867-477.867s213.949-477.867 477.867-477.867c263.917 0 477.867 213.946 477.867 477.867 0 263.919-213.947 477.867-477.867 477.867zM619.451 157.849c-8.51-7.065-18.11-13.373-28.813-18.914-10.7-5.549-22.433-9.977-35.193-13.303s-44.029-4.99-59.394-4.99c-32.382 0-57.215 7.693-74.502 23.074s-34.534 36.794-34.534 64.231c0 11.146 1.031 24.517 2.869 39.607 0.819 0.019 35.042 197.651 35.042 197.651 0.823 3.598 1.574 7.34 2.264 11.225 0.68 3.877 1.299 7.548 1.851 11.017 0.547 3.461 0.959 6.443 1.235 8.939 0.27 2.492 0.412 4.291 0.412 5.403 0 7.756-0.823 13.993-2.47 18.71-1.647 4.709-4.258 8.315-7.82 10.807-3.57 2.496-8.169 4.158-13.789 4.99-5.628 0.83-12.419 1.248-20.376 1.248 0 0-28.505 4.794-28.505 24.021 0 25.143 38.4 21.292 36.355 21.292h169.641c48.782 0 22.544-85.24 29.551-52.054-16.93-80.199-38.859-209.774-38.859-209.774-3.293-15.524-6.040-22.478-8.232-35.919-2.2-13.448-3.293-26.127-3.293-38.042 0-12.471 2.534-22.032 7.614-28.685 5.075-6.653 12.278-9.977 21.611-9.977 8.778 0 16.875 1.662 24.285 4.989 12.989 5.83 38.726 28.387 49.016 13.753 13.33-18.957-13.547-38.975-25.966-49.299zM534.545 584.211c-52.784 0-95.574 42.789-95.574 95.573s42.79 95.573 95.574 95.573c52.782 0 95.572-42.791 95.572-95.573 0-52.785-42.79-95.573-95.572-95.573z" />
<glyph unicode="&#xe953;" glyph-name="vehicle" d="M937.959 538.769c22.797 8.097 44.381 20.65 49.949 39.811 11.429 39.354-93.894 40.78-101.653 40.78-3.173-5.385-13.233-18.149-18.661-24.919-14.57 39.593-35.767 88.347-64.318 133.509-13.933 22.024-33.496 35.423-58.098 39.807-78.359 13.995-138.741 21.575-233.179 21.575s-154.82-7.58-233.149-21.575c-24.632-4.386-44.194-17.784-58.112-39.811-28.567-45.164-49.762-93.913-64.332-133.505-5.428 6.762-15.488 19.534-18.661 24.919-7.759 0-113.084-1.425-101.653-40.78 5.567-19.163 27.152-31.714 49.949-39.811-31.429-20.691-51.909-63.337-51.909-150.772 0-53.039 6.407-125.368 9.859-160.565v-72.807c0-14.887 11.989-26.953 26.762-26.953h128.246c14.789 0 26.762 12.068 26.762 26.953v12.82c70.226 6.499 169.406 8.5 286.239 8.5s216.011-2.001 286.255-8.5v-12.82c0-14.887 11.975-26.953 26.762-26.953h128.23c14.773 0 26.762 12.068 26.762 26.953v72.871c3.451 35.223 9.859 107.498 9.859 160.503 0 87.433-20.48 130.079-51.907 150.77zM110.517 378.356l-7.432 17.964c-6.158 14.887-0.171 28.559 15.613 26.953l98.092-12.898c16.36-2.506 28.209-12.068 34.367-26.953l2.1-5.066c7.247-17.517-0.762-26.953-15.613-26.953h-89.199c-18.661 0-30.418 8.817-37.928 26.953zM263.331 285.274h-110.704c-6.608 0-11.943 5.385-11.943 12.032 0 6.644 5.334 12.028 11.943 12.028h110.704c6.594 0 11.943-5.385 11.943-12.028 0-6.648-5.348-12.032-11.943-12.032zM202.793 584.392c13.575 35.982 32.562 78.877 57.443 118.212 6.857 10.866 15.116 16.637 26.778 18.712 75.715 13.52 133.998 20.849 224.984 20.849s149.269-7.329 225.016-20.849c11.632-2.075 19.889-7.846 26.762-18.704 24.835-39.264 43.822-82.189 57.413-118.22-70.707 8.446-178.971 10.936-309.191 10.936-130.234 0-238.511-2.492-309.205-10.936zM871.388 285.274h-110.704c-6.608 0-11.943 5.385-11.943 12.032 0 6.644 5.334 12.028 11.943 12.028h110.704c6.594 0 11.943-5.385 11.943-12.028 0-6.648-5.35-12.032-11.943-12.032zM920.917 396.321l-7.432-17.964c-7.51-18.137-19.252-26.953-37.912-26.953h-89.199c-14.851 0-22.858 9.436-15.613 26.953l2.1 5.066c6.158 14.887 17.992 24.447 34.367 26.953l98.076 12.898c15.798 1.606 21.77-12.066 15.613-26.953z" />
<glyph unicode="&#xe954;" glyph-name="building-large" d="M487.435 213.943h52.565v53.638h-52.565v-53.638zM592.566 428.495h52.565v53.638h-52.565v-53.638zM487.435 428.495h52.565v53.638h-52.565v-53.638zM382.304 428.495h52.565v53.638h-52.565v-53.638zM592.566 106.667h52.565v53.638h-52.565v-53.638zM382.304 106.667h52.565v53.638h-52.565v-53.638zM592.566 213.943h52.565v53.638h-52.565v-53.638zM382.304 213.943h52.565v53.638h-52.565v-53.638zM592.566 321.219h52.565v53.638h-52.565v-53.638zM487.435 321.219h52.565v53.638h-52.565v-53.638zM382.304 321.219h52.565v53.638h-52.565v-53.638zM592.566 643.048h52.565v53.638h-52.565v-53.638zM487.435 643.048h52.565v53.638h-52.565v-53.638zM382.304 643.048h52.565v53.638h-52.565v-53.638zM592.566 535.771h52.565v53.638h-52.565v-53.638zM487.435 535.771h52.565v53.638h-52.565v-53.638zM382.304 535.771h52.565v53.638h-52.565v-53.638zM172.043 53.029h52.565v53.638h-52.565v-53.638zM172.043 160.305h52.565v53.638h-52.565v-53.638zM172.043 267.581h52.565v53.638h-52.565v-53.638zM172.043 374.857h52.565v53.638h-52.565v-53.638zM172.043 482.133h52.565v53.638h-52.565v-53.638zM817.163 53.029h52.565v53.638h-52.565v-53.638zM817.163 160.305h52.565v53.638h-52.565v-53.638zM817.163 267.581h52.565v53.638h-52.565v-53.638zM817.163 374.857h52.565v53.638h-52.565v-53.638zM817.163 482.133h52.565v53.638h-52.565v-53.638zM716.117 747.345v-750.933h-157.696v160.914h-52.565v-160.914h-157.696v750.933h367.957zM295.595 586.431h-157.696v-590.019h157.696v590.019zM940.715 586.431v-590.019h-157.696v590.019h157.696zM245.419-57.226h-107.52c-29.069 0-52.565 23.976-52.565 53.638v590.019c0 29.662 0 53.638 0 53.638h210.261v120.595l2.389-335.147h-52.565c-29.069 0-52.565-23.976-52.565-53.638v-375.467c0-29.662 23.497-53.638 52.565-53.638zM350.549 800.983v0zM192.853-3.588c0-29.662 23.497-53.638 52.565-53.638h683.349c29.069 0 52.565 23.976 52.565 53.638v590.019c0 29.662 0 53.638 0 53.638h-210.261v160.914h-52.565l-194.281 159.017-173.677-159.017c-29.069 0-54.948 0-54.948 0l2.383-375.467h-52.565c-29.069 0-52.565-23.976-52.565-53.638v-375.467z" />
<glyph unicode="&#xe955;" glyph-name="building" d="M554.667 320h42.667v42.667h-42.667v-42.667zM298.667 192h42.667v42.667h-42.667v-42.667zM298.667 277.333h42.667v42.667h-42.667v-42.667zM298.667 362.667h42.667v42.667h-42.667v-42.667zM298.667 448h42.667v42.667h-42.667v-42.667zM640 490.667h42.667v42.667h-42.667v-42.667zM554.667 490.667h42.667v42.667h-42.667v-42.667zM469.333 490.667h42.667v42.667h-42.667v-42.667zM768 192h42.667v42.667h-42.667v-42.667zM768 362.667h42.667v42.667h-42.667v-42.667zM768 277.333h42.667v42.667h-42.667v-42.667zM640 234.667h42.667v42.667h-42.667v-42.667zM469.333 234.667h42.667v42.667h-42.667v-42.667zM640 320h42.667v42.667h-42.667v-42.667zM469.333 320h42.667v42.667h-42.667v-42.667zM640 405.333h42.667v42.667h-42.667v-42.667zM554.667 405.333h42.667v42.667h-42.667v-42.667zM469.333 405.333h42.667v42.667h-42.667v-42.667zM640 661.333h42.667v42.667h-42.667v-42.667zM554.667 661.333h42.667v42.667h-42.667v-42.667zM469.333 661.333h42.667v42.667h-42.667v-42.667zM640 576h42.667v42.667h-42.667v-42.667zM554.667 576h42.667v42.667h-42.667v-42.667zM469.333 576h42.667v42.667h-42.667v-42.667zM298.667 533.333h42.667v42.667h-42.667v-42.667zM810.667 448h-42.667v-298.667h42.667v298.667zM725.333 746.667h-298.667v-597.333h128v128h42.667v-128h128v597.333zM384 618.667h-128v-469.333h128v469.333zM853.333 149.333c0-23.595-19.072-42.667-42.667-42.667h-554.667c-23.595 0-42.667 19.072-42.667 42.667v469.333c0 23.595 19.072 42.667 42.667 42.667h128v85.333c0 23.595 19.072 42.667 42.667 42.667h298.667c23.595 0 42.667-19.072 42.667-42.667v-256h42.667c23.595 0 42.667-19.072 42.667-42.667v-298.667z" />
<glyph unicode="&#xe956;" glyph-name="bullhorn" d="M88.634 476.796c0 69.33 51.372 126.308 117.124 132.963 1.1 0.195 2.081 0.509 3.234 0.666 199.613 26.251 406.524 149.348 475.382 193.385 7.732 6.295 15.712 11.602 23.923 15.749h0.007c14.364 7.268 29.388 11.168 44.867 11.168 101.726 0 184.193-166.55 184.193-372.001s-82.466-372.008-184.193-372.008c-36.521 0-70.542 21.558-99.174 58.588-35.975 34.066-73.933 62.316-111.966 85.745-31.498-66.133-98.987-111.966-176.992-111.966-108.029 0-195.93 87.901-195.93 195.952v32.494c0 1.991 0.090 3.952 0.15 5.928-47.263 19.964-80.625 67.541-80.625 123.337zM753.179 140.905c53.011 0 130.021 123.808 130.021 317.829 0 194.014-77.010 317.822-130.021 317.822s-130.021-123.816-130.021-317.822c0-194.021 77.010-317.829 130.021-317.829zM365.047 184.118c53.618 0 99.765 32.427 119.976 78.679-105.724 52.996-203.894 71.8-250.902 78.147v-25.899c0.007-72.189 58.745-130.927 130.927-130.927zM682.899 583.89c56.694-16.236 98.575-72.496 98.575-139.595 0-64.749-38.924-119.527-92.564-137.896-10.869 43.722-17.643 94.937-17.643 152.335-0.007 45.908 4.342 87.818 11.632 125.156z" />
<glyph unicode="&#xe957;" glyph-name="handshake" d="M204.689 647.382c36.748-9.45 60.185 3.165 60.185 3.165s201.734 89.516 232.227 106.018c30.502 16.493 65.675 0 65.675 0s132.152-73.024 148.523-82.473c16.463-9.45 35.173-47.137 15.652-85.629-19.521-38.455-77.366-12.559-77.366-12.559l-129.048 72.255c-85.233-26.701-388.59-263.135-388.59-263.135l-100.075 22c-15.652 183.781 46.154 267.068 46.154 267.068s89.913-17.27 126.662-26.711v0zM919.319 656.058l-88.338-22.009c0 0-39.853-5.516-53.893 0 0 0 13.229-48.442-8.641-72.931s-38.324-37.826-73.506-37.826c-35.182 0-52.363 14.91-65.666 23.545-13.312 8.635-93.073 54.226-93.073 54.226s-110.227-45.554-365.089-250.622c0 0-31.304-20.426-10.972-52.607 0 0 18.757-26.664 56.316 0 37.513 26.757 118.030 81.705 118.030 81.705s8.641 5.516 14.077 0c5.491-5.516 2.386-8.681-1.529-12.559s-111.821-80.983-111.821-80.983c0 0-14.077-16.446 2.34-35.244 16.417-18.89 25.822-20.426 47.684-5.516 21.898 14.91 117.302 89.47 117.302 89.47s12.501 7.867 18.757-0.722c6.255-8.681 4.68-11.023 0-15.725s-107.104-79.345-107.104-79.345c0 0-16.417-16.446-1.575-32.986s32.068-18.797 52.4-3.887c20.332 14.91 72.686 54.957 72.686 54.957s10.171 10.208 20.332 2.351c10.171-7.867-3.915-19.612-3.915-19.612l-58.471-42.389c0 0-15.79-14.188 7.646-32.264 23.483-18.075 24.247-13.374 44.579 0s48.485 35.336 48.485 35.336c0 0-42.23 84.861 12.501 121.826 0 0 21.907 15.632 48.448 16.446 0 0 0 44.018 44.625 57.345 44.524 13.374 60.176-10.986 60.176-10.986s14.123 21.102 42.193 19.612c28.162-1.536 44.349-12.559 44.349-12.559s13.588 19.658 45.611 18.075c32.022-1.583 60.176-42.389 60.176-42.389l107.15 21.194c0.018 0 17.2 167.288-42.267 267.068v0zM833.871 323.25c0 0-1.529 35.336-17.181 43.203s-50.024 12.559-57.845-21.602l-4.947-1.175c0 0-9.176 22.777-43.547 22.777 0 0-30.502 2.351-29.692-33.8l-8.641-0.722c0 0-15.652 40.76-50.825 25.85s-33.644-40.038-21.050-68.331c0 0-6.117-4.702-8.19-4.702-1.981 0-18.443 28.293-43.455 15.725 0 0-34.408-3.98-19.521-66.786 14.841-62.815 14.031-53.412 14.031-53.412s8.641-38.502 42.285-27.479c33.561 11.023 28.881 38.502 27.352 46.369 0 0 36.693-27.571 56.306-19.704 19.521 7.867 28.881 24.406 25.73 57.391 0 0 15.652-30.644 43.814-21.963 28.162 8.589 25.822 36.873 27.352 40.751 0 0 10.171-21.953 33.644-14.901 23.409 7.136 28.89 36.956 34.381 82.51v0z" />
<glyph unicode="&#xe958;" glyph-name="mls-title" d="M375.334 618.667l-98.106-243.714-98.106 243.714h-51.122v-298.667h39.597v116.291l-3.926 124.945 98.275-241.236h30.352l98.486 241.824-3.673-125.533v-116.291h39.555v298.667zM512 618.667v-298.667h170.667v32.182h-133.383v266.485zM899.766 397.478c0 6.787-1.032 12.756-3.138 17.949-2.065 5.192-5.781 9.976-11.109 14.31-5.286 4.334-12.43 8.381-21.432 12.143-9.002 3.802-20.441 7.686-34.275 11.693-14.536 4.129-27.668 8.831-39.437 14.065-11.769 5.274-21.804 11.325-30.063 18.194-8.259 6.828-14.577 14.678-19.037 23.427-4.419 8.79-6.649 18.848-6.649 30.173s2.395 21.792 7.144 31.441c4.79 9.649 11.521 18.030 20.276 25.144s19.244 12.674 31.467 16.681c12.224 3.966 25.892 5.969 40.924 5.969 16.518 0 31.261-2.453 44.145-7.4 12.926-4.906 23.745-11.407 32.541-19.543 8.837-8.136 15.527-17.499 20.111-28.17 4.543-10.63 6.855-21.587 6.855-32.913h-38.942c0 8.136-1.321 15.618-3.923 22.569-2.643 6.91-6.649 12.92-11.976 17.949-5.368 5.070-12.1 8.995-20.194 11.775-8.053 2.78-17.592 4.211-28.618 4.211-10.365 0-19.368-1.227-27.007-3.598-7.681-2.412-13.999-5.683-18.955-9.894-4.955-4.17-8.672-9.158-11.109-14.882-2.395-5.724-3.634-11.979-3.634-18.766 0-6.133 1.28-11.693 3.923-16.763 2.602-5.029 6.69-9.731 12.224-13.983s12.595-8.177 21.267-11.775c8.631-3.598 19.037-7.032 31.137-10.385 16.683-4.62 31.054-9.812 43.154-15.455s22.052-12.061 29.939-19.257c7.846-7.196 13.71-15.25 17.551-24.163s5.74-19.012 5.74-30.337c0-11.857-2.395-22.569-7.227-32.136-4.873-9.608-11.769-17.785-20.689-24.572s-19.698-12.020-32.293-15.659c-12.513-3.68-26.553-5.52-41.998-5.52-9.002 0-18.046 0.859-27.049 2.535-8.961 1.635-17.633 4.129-25.892 7.482-8.3 3.312-15.94 7.441-23.002 12.347-7.062 4.947-13.173 10.671-18.418 17.172-5.245 6.542-9.374 13.86-12.306 21.955-2.932 8.136-4.46 17.049-4.46 26.78h38.942c0-9.976 1.982-18.521 5.905-25.676 4.006-7.114 9.292-13.002 15.94-17.662s14.33-8.095 23.002-10.262c8.672-2.208 17.757-3.312 27.338-3.312 20.441 0 36.092 4.129 46.953 12.388 10.902 8.218 16.353 19.502 16.353 33.73z" />
<glyph unicode="&#xe959;" glyph-name="page-image" d="M251.871 860.903h346.839l260.129-257.652v-515.303c0-47.236-39.019-85.884-86.71-85.884h-520.692c-47.69 0-86.276 38.648-86.276 85.884l0.434 687.071c0 47.236 38.586 85.884 86.276 85.884zM704.688 165.595v296.883c0 23.326-19.085 42.412-42.412 42.412h-296.883c-23.326 0-42.412-19.085-42.412-42.412v-296.883c0-23.326 19.085-42.412 42.412-42.412h296.883c23.326 0 42.412 19.085 42.412 42.412zM555.355 560.31h238.452l-238.452 236.181v-236.181zM439.614 282.227l53.015-63.83 74.221 95.639 95.427-127.235h-296.883l74.221 95.427z" />
<glyph unicode="&#xe95a;" glyph-name="paragraph" d="M116.274 461.277v-36.862h-21.557v104.623h40.814c6.18 0 11.701-0.862 16.563-2.587s8.982-4.132 12.359-7.222c3.377-3.090 5.952-6.754 7.725-10.994s2.659-8.85 2.659-13.832c0-5.078-0.886-9.653-2.659-13.725s-4.347-7.545-7.725-10.419c-3.377-2.874-7.497-5.090-12.359-6.647s-10.383-2.335-16.563-2.335h-19.257zM116.274 478.738h19.257c3.066 0 5.713 0.383 7.94 1.15s4.048 1.832 5.461 3.198c1.413 1.365 2.455 3.006 3.126 4.922s1.006 4 1.006 6.251c0 2.252-0.335 4.419-1.006 6.503s-1.713 3.928-3.126 5.533c-1.413 1.605-3.234 2.886-5.461 3.844s-4.874 1.437-7.94 1.437h-19.257v-32.838zM229.461 445.971h-37.796l-7.186-21.557h-22.922l38.946 104.623h19.976l39.162-104.623h-22.922l-7.257 21.557zM197.485 463.432h26.156l-13.15 39.162-13.006-39.162zM309.99 462.714h-17.174v-38.299h-21.557v104.623h38.874c6.036 0 11.449-0.683 16.24-2.048s8.838-3.377 12.144-6.036c3.305-2.659 5.844-5.952 7.617-9.88s2.659-8.479 2.659-13.653c0-3.832-0.431-7.269-1.293-10.311s-2.108-5.748-3.737-8.12c-1.629-2.371-3.593-4.443-5.892-6.216s-4.886-3.305-7.76-4.599l22.635-42.754v-1.006h-23.138l-19.617 38.299zM292.817 480.175h17.389c2.826 0 5.305 0.371 7.437 1.114s3.904 1.796 5.317 3.162c1.413 1.365 2.479 2.994 3.198 4.886s1.078 4.012 1.078 6.359c0 4.934-1.401 8.814-4.204 11.641s-7.102 4.24-12.898 4.24h-17.317v-31.401zM429.031 445.971h-37.796l-7.186-21.557h-22.922l38.946 104.623h19.976l39.162-104.623h-22.922l-7.257 21.557zM397.055 463.432h26.156l-13.15 39.162-13.006-39.162zM547.714 437.636c-1.246-1.485-2.946-3.078-5.102-4.778s-4.862-3.281-8.12-4.743c-3.258-1.461-7.102-2.683-11.533-3.665s-9.521-1.473-15.269-1.473c-6.755 0-12.922 1.114-18.503 3.341s-10.359 5.497-14.335 9.808c-3.976 4.311-7.054 9.605-9.234 15.88s-3.269 13.461-3.269 21.557v6.18c0 8.096 1.042 15.293 3.126 21.593s5.030 11.605 8.838 15.916c3.808 4.311 8.419 7.593 13.832 9.844s11.425 3.377 18.036 3.377c6.802 0 12.683-0.85 17.641-2.551s9.102-4.084 12.431-7.15c3.329-3.066 5.928-6.731 7.796-10.994s3.090-8.934 3.665-14.012h-20.982c-0.431 2.635-1.102 5.018-2.012 7.15s-2.156 3.952-3.737 5.461c-1.581 1.509-3.533 2.671-5.856 3.485s-5.090 1.222-8.299 1.222c-7.377 0-12.982-2.79-16.814-8.371s-5.749-13.856-5.749-24.826v-6.323c0-10.97 2.084-19.257 6.251-24.862s10.275-8.407 18.323-8.407c2.587 0 4.838 0.168 6.754 0.503s3.557 0.754 4.922 1.257c1.365 0.503 2.503 1.054 3.413 1.653s1.653 1.186 2.228 1.76v18.036h-19.617v15.88h41.174v-41.748zM605.826 462.714h-17.174v-38.299h-21.557v104.623h38.874c6.036 0 11.449-0.683 16.24-2.048s8.838-3.377 12.144-6.036c3.305-2.659 5.844-5.952 7.617-9.88s2.659-8.479 2.659-13.653c0-3.832-0.431-7.269-1.293-10.311s-2.108-5.748-3.737-8.12c-1.629-2.371-3.593-4.443-5.892-6.216s-4.886-3.305-7.76-4.599l22.635-42.754v-1.006h-23.138l-19.617 38.299zM588.652 480.175h17.389c2.826 0 5.305 0.371 7.437 1.114s3.904 1.796 5.317 3.162c1.413 1.365 2.479 2.994 3.198 4.886s1.078 4.012 1.078 6.359c0 4.934-1.401 8.814-4.204 11.641s-7.102 4.24-12.898 4.24h-17.317v-31.401zM724.852 445.971h-37.796l-7.186-21.557h-22.922l38.946 104.623h19.976l39.162-104.623h-22.922l-7.257 21.557zM692.876 463.432h26.156l-13.15 39.162-13.006-39.162zM788.207 461.277v-36.862h-21.557v104.623h40.814c6.18 0 11.701-0.862 16.563-2.587s8.982-4.132 12.359-7.222c3.377-3.090 5.952-6.754 7.725-10.994s2.659-8.85 2.659-13.832c0-5.078-0.886-9.653-2.659-13.725s-4.347-7.545-7.725-10.419c-3.377-2.874-7.497-5.090-12.359-6.647s-10.383-2.335-16.563-2.335h-19.257zM788.207 478.738h19.257c3.066 0 5.713 0.383 7.94 1.15s4.048 1.832 5.461 3.198c1.413 1.365 2.455 3.006 3.126 4.922s1.006 4 1.006 6.251c0 2.252-0.335 4.419-1.006 6.503s-1.713 3.928-3.126 5.533c-1.413 1.605-3.234 2.886-5.461 3.844s-4.874 1.437-7.94 1.437h-19.257v-32.838zM946.346 424.414h-21.557v44.838h-42.036v-44.838h-21.557v104.623h21.557v-42.395h42.036v42.395h21.557v-104.623z" />
<glyph unicode="&#xe95b;" glyph-name="region" d="M170.667 874.658v-658.603l345.003 658.603zM170.667 32.201v-10.88h623.787l-448.683 345.173zM650.667 691.2c-34.176 0-61.867-27.691-61.867-61.867s27.691-61.867 61.867-61.867c34.176 0 61.867 27.691 61.867 61.867s-27.691 61.867-61.867 61.867zM650.667 296.533c0 0-138.667 256.213-138.667 332.8s62.080 138.667 138.667 138.667c76.587 0 138.667-62.080 138.667-138.667s-138.667-332.8-138.667-332.8v0zM611.968 874.667l-236.032-450.645 477.397-367.232v817.877h-241.365z" />
<glyph unicode="&#xe95c;" glyph-name="teams" d="M744.229 461.342c77.47 0 139.539 63.723 139.539 142.663s-62.069 142.663-139.539 142.663c-14.934 0-29.401-2.378-42.468-6.658 26.601-38.519 42.002-85.122 42.002-136.005s-15.867-97.011-42.002-136.005c13.067-4.28 27.535-6.658 42.468-6.658v0zM511.028 461.342c77.412 0 139.435 63.723 139.435 142.663s-62.023 142.663-139.435 142.663c-77.412 0-139.901-63.723-139.901-142.663s62.489-142.663 139.901-142.663v0zM819.744 358.625c38.706-34.715 64.355-78.94 64.355-135.054v-95.108h139.901v95.108c0 73.233-110.522 118.41-204.256 135.054v0zM511.028 366.233c-93.268 0-279.803-47.554-279.803-142.663v-95.108h559.605v95.108c0 95.108-186.535 142.663-279.803 142.663v0zM279.771 461.342c-77.47 0-139.539 63.723-139.539 142.663s62.069 142.663 139.539 142.663c14.934 0 29.401-2.378 42.468-6.658-26.601-38.519-42.002-85.122-42.002-136.005s15.867-97.011 42.002-136.005c-13.067-4.28-27.535-6.658-42.468-6.658v0zM204.256 358.625c-38.706-34.715-64.355-78.94-64.355-135.054v-95.108h-139.901v95.108c0 73.233 110.522 118.41 204.256 135.054v0z" />
<glyph unicode="&#xe95d;" glyph-name="title" d="M243.668 574.807h-80.196v-222.424h-32.73v222.424h-80.025v27.075h192.95v-27.075zM317.049 352.382h-32.901v249.499h32.901v-249.499zM545.682 574.807h-80.196v-222.424h-32.73v222.424h-80.025v27.075h192.95v-27.075zM616.836 379.286h118.238v-26.903h-151.31v249.499h33.072v-222.596zM914.698 467.707h-108.128v-88.421h125.606v-26.903h-158.507v249.499h156.794v-27.075h-123.893v-80.196h108.128v-26.903z" />
</font>
</defs>
</svg>
